<svg width="1123" height="794" viewBox="0 0 1123 794" fill="none" xmlns="http://www.w3.org/2000/svg">
<g id="t-shirt-mockup">
<g id="t-shirt">
<g id="colors">
<g id="tshirt"color="#303152">
<g id="t-shirt-f">
<path id="path1662" d="M482.901 149.428L482.875 149.42C482.937 149.183 482.99 148.962 483.033 148.736L482.901 149.428ZM544.801 305.271C544.801 305.271 541.883 298.967 537.647 288.24C533.414 277.519 526.49 253.227 522.897 243.136C519.299 233.044 509.793 204.02 505.536 191.721C501.285 179.418 498.918 166.802 494.728 159.546C492.534 155.743 489.497 152.664 487.097 150.582V150.576L487.093 150.574C484.914 148.683 483.263 147.616 483.263 147.616L483.233 147.749C483.581 145.609 483.237 144.124 481.593 143.142C478.02 141.012 468.476 134.628 448.542 129.661C428.605 124.689 421.928 119.958 421.928 119.958C421.928 119.958 386.002 105.357 373.824 101.726C373.349 101.432 371.947 100.264 371.429 100.298L368.743 98.7077C367.543 98.1664 366.498 97.8266 364.039 95.9144C360.693 93.3087 358.662 93.1368 351.325 92.7536C301.839 91.4755 257.751 92.0385 234.462 92.8583C223.291 93.2534 217.032 94.0811 217.032 94.0811C215.476 94.1167 206.799 94.7468 206.799 94.7468C204.555 95.3573 202.461 96.6947 200.93 97.6943C196.501 100.576 198.123 99.9443 196.009 100.893C195.059 101.317 193.254 102.582 193.254 102.582C193.254 102.582 188.145 106.05 172.361 111.254C156.573 116.459 138.254 125.1 135.433 126.514C132.612 127.931 107.951 135.44 103.464 136.386C98.982 137.332 85.3157 144.829 83.6682 145.542C82.5442 146.028 81.4517 146.808 80.9855 148.057C80.9855 148.057 81.0843 150.696 80.6556 150.991C75.2013 154.673 69.9229 161 68.0343 165.795C65.5116 172.181 60.0021 191.355 57.7204 197.979C55.4328 204.603 49.6723 220.715 45.8537 233.356C42.0529 245.953 36.4544 260.323 35.1032 265.999C33.754 271.678 21.0299 304.398 19.653 307.711C18.2702 311.025 18.6218 314.56 25.3187 316.847C31.7153 319.028 41.4662 323.801 41.4662 323.801C41.4662 323.801 54.1408 330.598 75.0334 343.166C79.6066 345.916 96.6925 350.802 109.12 353.395C121.813 356.046 120.066 346.734 120.066 346.734C120.066 346.734 120.785 349.802 120.762 367.358C120.748 384.92 121.246 406.21 121.259 407.397C121.273 408.58 120.775 445.01 122.439 464.409C124.102 483.806 123.144 491.615 121.014 496.819C118.881 502.024 116.244 517.636 113.539 528.521C110.839 539.402 109.316 568.975 113.205 577.491C117.099 586.009 116.751 598.326 116.218 601.619C115.467 606.198 114.12 613.687 113.925 616.763C113.727 619.839 112.605 624.805 111.034 631.429C109.46 638.053 108.952 646.332 109.681 651.777C110.404 657.217 110.26 660.058 109.547 661.946C108.832 663.841 106.546 670.227 111.08 673.54C115.616 676.851 138.503 690.808 171.596 688.682C204.692 686.553 223.287 678.985 231.538 676.614C239.79 674.251 264.386 673.775 281.911 675.196C299.433 676.614 322.159 678.034 342.603 685.842C363.049 693.651 397.225 702.637 409.501 700.745C421.776 698.854 435.861 689.389 438.408 685.134C440.956 680.877 441.389 677.562 442.09 676.851C442.787 676.138 442.605 661.237 441.746 648.936C440.883 636.635 439.119 628.118 438.572 622.204C438.022 616.289 437.224 609.189 435.504 603.751C433.779 598.308 428.435 586.955 430.225 578.433C432.007 569.921 435.215 561.405 435.436 560.221C435.658 559.038 440.65 542.006 440.434 524.258C440.211 506.52 439.267 430.577 436.647 410.234C436.647 410.234 436.598 406.21 437.967 401.954C439.332 397.693 442.754 368.601 443.305 355.821C443.423 353.095 443.783 349.543 444.269 345.648H444.318C447.965 356.428 472.473 345.952 483.436 342.497C494.432 339.026 513.505 325.148 520.083 321.991C526.674 318.836 539.86 314.107 543.303 311.583C546.739 309.058 544.801 305.271 544.801 305.271" fill="currentColor"/>
</g>
<g id="t-shirt-b">
<path id="path1666" d="M1041.7 149.756L1041.6 150.286L1041.57 150.256C1041.61 150.096 1041.66 149.912 1041.7 149.756ZM588.339 306.553C591.718 309.031 604.657 313.671 611.119 316.767C617.582 319.862 636.294 333.483 647.082 336.891C657.878 340.293 682.052 350.628 685.509 339.89L685.361 339.133L685.414 339.117C685.946 343.279 686.341 347.09 686.467 349.966C687.004 362.505 690.367 391.054 691.706 395.232C693.047 399.412 692.998 403.359 692.998 403.359C690.43 423.322 689.505 497.844 689.288 515.254C689.073 532.668 693.97 549.382 694.187 550.544C694.406 551.706 697.553 560.062 699.308 568.418C701.058 576.778 695.813 587.922 694.124 593.258C692.429 598.597 691.649 605.563 691.109 611.367C690.574 617.171 688.848 625.525 688 637.601C687.504 644.699 687.237 652.68 687.241 658.189C687.241 658.189 687.251 660.995 688.869 662.634C688.869 662.634 726.097 696.269 843.001 696.269C959.906 696.269 1012.87 661.334 1012.87 661.334L1013.85 660.398C1016.39 656.992 1014.6 651.992 1013.99 650.367C1013.29 648.51 1013.14 645.728 1013.85 640.386C1014.57 635.047 1014.07 626.922 1012.53 620.422C1010.98 613.921 1009.88 609.048 1009.69 606.027C1009.5 603.012 1008.39 595.624 1007.44 591.168C1006.8 588.115 1006.58 575.846 1010.4 567.492C1014.21 559.135 1012.72 530.114 1010.07 519.434C1007.42 508.755 1004.82 493.435 1002.73 488.326C1000.64 483.22 999.706 475.559 1001.34 456.523C1002.97 437.488 1002.48 401.734 1002.49 400.576C1002.51 399.412 1002.99 378.522 1002.98 361.288C1002.97 355.12 1003.63 350.132 1003.66 346.065C1003.67 344.97 1003.7 344.008 1003.74 343.108C1007.44 353.51 1031.37 343.295 1042.09 339.909C1052.88 336.508 1071.59 322.887 1078.06 319.791C1084.52 316.695 1097.46 312.053 1100.83 309.576C1104.21 307.099 1102.3 303.385 1102.3 303.385C1102.3 303.385 1099.44 297.194 1095.29 286.67C1091.13 276.143 1084.34 252.311 1080.81 242.406C1077.28 232.505 1067.95 204.024 1063.77 191.954C1059.6 179.884 1057.28 167.504 1053.17 160.382C1049.06 153.263 1041.92 148.674 1041.92 148.674L1041.88 148.828C1042.23 146.714 1041.9 145.248 1040.28 144.284C1036.77 142.194 1027.41 135.926 1007.85 131.054C988.286 126.177 981.727 121.537 981.727 121.537C981.727 121.537 945.716 105.521 931.214 100.555L932.682 100.492C929.278 98.641 918.725 92.2128 914.593 92.2128L911.594 92.8311C911.637 92.8251 910.335 92.7046 910.335 92.7046L843.102 93.8287L774.492 92.7046C774.492 92.7046 774.524 92.7066 774.569 92.7125L770.723 92.4972C766.59 93.6509 762.327 96.3356 759.226 98.07L755.755 100.302C745.069 103.222 707.445 118.512 707.445 118.512C707.445 118.512 700.892 123.153 681.327 128.032C661.766 132.903 652.404 139.172 648.894 141.258C647.291 142.218 646.95 143.664 647.276 145.738L647.262 145.651C647.262 145.651 647.139 145.728 646.922 145.874C645.5 146.246 644.162 146.819 644.591 147.633V147.635C642.137 149.628 638.511 153.02 636.004 157.358C631.893 164.479 629.57 176.862 625.399 188.93C621.223 201.002 611.893 229.482 608.363 239.387C604.839 249.29 598.043 273.126 593.889 283.646C589.73 294.171 586.872 300.362 586.872 300.362C586.872 300.362 584.967 304.078 588.339 306.553" fill="currentColor"/>
</g>
</g>
<g id="sleeves" color="#232323">
<g id="sleeve-f-r">
<path id="path1674" d="M118.955 340.507C118.303 335.134 118.526 337.542 117.639 332.145C116.15 323.054 114.739 315.644 114.739 315.644C114.739 315.644 100.569 237.335 96.563 216.995C96.563 216.995 86.737 170.151 84.238 161.634C82.5944 156.028 80.9331 152.166 81.0061 149.574L81.0042 149.572C80.9785 150.301 80.9014 151.103 80.6743 151.259C75.22 154.942 69.9415 161.269 68.055 166.063C65.5323 172.45 60.0207 191.624 57.739 198.25C55.4534 204.872 49.691 220.984 45.8744 233.625C42.0735 246.222 36.4731 260.592 35.1219 266.267C33.7746 271.947 21.0486 304.666 19.6717 307.979C18.2908 311.294 18.6405 314.828 25.3374 317.116C31.7339 319.297 41.4849 324.07 41.4849 324.07C41.4849 324.07 54.1595 330.867 75.0521 343.435C79.6273 346.185 92.8768 350.231 105.304 352.827C113.58 354.553 119.542 352.042 120.028 349.496C119.812 343.982 119.101 341.722 119.101 341.722L118.955 340.507Z" fill="currentColor"/>
</g>
<g id="sleeve-b-r">
<path id="path1686" d="M1041.59 150.202C1041.63 150.042 1041.68 149.859 1041.72 149.703L1041.62 150.232L1041.59 150.202ZM1004.66 335.814C1004.66 335.814 1004 337.951 1003.78 343.081C1007.51 353.431 1031.39 343.238 1042.11 339.856C1052.9 336.452 1071.61 322.831 1078.07 319.735C1084.53 316.64 1097.48 311.999 1100.85 309.522C1104.23 307.045 1102.32 303.331 1102.32 303.331C1102.32 303.331 1099.46 297.14 1095.31 286.617C1091.15 276.089 1084.35 252.257 1080.83 242.352C1077.3 232.451 1067.97 203.971 1063.79 191.899C1059.62 179.83 1057.3 167.448 1053.19 160.329C1049.07 153.209 1041.93 148.62 1041.93 148.62L1041.9 148.774L1041.86 148.987C1041.43 151.427 1040.16 154.706 1038.87 159.09C1036.42 167.448 1026.78 213.413 1026.78 213.413C1022.85 233.376 1008.95 310.219 1008.95 310.219C1008.95 310.219 1007.55 317.495 1006.1 326.414C1005.23 331.709 1005.44 329.346 1004.81 334.619L1004.66 335.814Z" fill="currentColor"/>
</g>
<g id="sleeve-b-l">
<path id="path1690" d="M685.527 339.835L685.515 339.774C685.483 339.533 685.46 339.306 685.428 339.063L685.375 339.079L685.515 339.774C685.517 339.798 685.519 339.819 685.523 339.843C682.056 350.566 657.888 340.238 647.1 336.836C636.31 333.429 617.596 319.808 611.135 316.712C604.677 313.617 591.73 308.976 588.357 306.499C584.981 304.024 586.884 300.308 586.884 300.308C586.884 300.308 589.748 294.117 593.901 283.592C598.061 273.072 604.853 249.236 608.381 239.333C611.909 229.428 621.245 200.948 625.417 188.876C629.585 176.807 631.909 164.425 636.022 157.304C638.528 152.967 642.153 149.574 644.605 147.58V147.578C644.18 146.764 645.516 146.192 646.942 145.82C647.153 145.676 647.276 145.597 647.276 145.597L647.294 145.686C647.294 145.686 648.732 150.482 650.367 156.065C652.817 164.425 662.459 210.39 662.459 210.39C666.39 230.353 680.296 307.196 680.296 307.196C680.296 307.196 684.539 329.822 686.027 344.029L686.007 344.047C685.867 342.71 685.705 341.305 685.523 339.843C685.525 339.839 685.525 339.837 685.527 339.835Z" fill="currentColor"/>
</g>
<g id="neck-f">
<g id="g1676">
<path id="path1678" d="M357.682 107.46C349.77 122.24 330.416 131.055 319.99 134.749C297.679 142.665 271.672 142.844 244.586 135.17C224.861 129.581 212.686 116.442 207.556 108.92L207.293 107.851C207.293 107.851 240.374 103.372 281.533 103.372C322.686 103.372 347.822 104.315 358.268 106.436L357.682 107.46ZM374.521 102.47C369.296 99.5183 362.668 95.3185 360.155 94.1826C359.709 93.9811 358.608 93.8052 357.002 93.6492L355.485 93.5208C343.468 92.5982 312.285 92.4955 296.571 92.6516C277.671 92.8274 233.3 92.6516 221.809 93.9159C218.828 94.2418 216.404 94.4374 214.399 94.5717L209.004 94.8957C206.884 95.0458 205.561 95.2612 204.377 95.9091C202.05 97.1774 195.027 102.211 190.853 104.279C190.31 104.842 187.657 107.884 189.806 112.019C208.267 147.542 253.94 153.686 253.94 153.686C253.94 153.686 292.957 161.277 326.777 150.011C350.112 142.246 367.689 128.935 374.685 110.867C376.676 105.739 375.007 103.09 374.521 102.47" fill="currentColor"/>
</g>
<g id="g1680">
<path id="path1682" d="M207.297 107.466C207.297 107.466 240.378 102.99 281.535 102.99C322.69 102.99 347.824 103.93 358.27 106.052L354.857 110.999C354.857 110.999 337.727 108.533 281.332 108.533C243.924 108.533 211.414 113.195 211.414 113.195L207.297 107.466Z" fill="currentColor"/>
</g>
</g>
<g id="neck-b">
<path id="path1694" d="M845.614 93.8293C882.585 93.7641 917.352 93.3769 913.993 92.2113C916.401 92.4148 918.047 92.6361 918.614 92.8771C921.075 93.93 927.565 97.7802 932.679 100.491C932.901 100.753 890.849 106.154 845.427 105.866L844.095 105.848C843.41 105.852 842.726 105.862 842.037 105.866C796.617 106.154 754.563 100.753 754.784 100.491C759.908 97.7802 766.388 93.93 768.853 92.8771C769.42 92.6361 771.06 92.4148 773.472 92.2113C770.114 93.3769 807.124 93.7641 844.095 93.8293H845.614Z" fill="currentColor"/>
</g>
<g id="sleeve-f-l">
<path id="path1670" d="M483.052 149.006L482.919 149.698L482.892 149.688C482.955 149.453 483.008 149.229 483.052 149.006ZM467.821 213.91C463.813 234.254 449.647 312.561 449.647 312.561C449.647 312.561 446.081 331.577 444.289 345.917H444.336C447.983 356.697 472.491 346.221 483.455 342.764C494.45 339.293 513.523 325.416 520.102 322.261C526.692 319.104 539.878 314.377 543.319 311.852C546.755 309.327 544.819 305.541 544.819 305.541C544.819 305.541 541.901 299.235 537.664 288.51C533.432 277.789 526.508 253.497 522.915 243.406C519.317 233.311 509.812 204.288 505.554 191.99C501.303 179.687 498.935 167.072 494.747 159.816C492.552 156.013 489.514 152.933 487.113 150.851V150.843L487.109 150.841C484.93 148.953 483.281 147.886 483.281 147.886L483.251 148.018C483.334 147.509 483.37 147.044 483.366 146.606C483.394 149.198 481.764 153.018 480.146 158.552C477.643 167.072 467.821 213.91 467.821 213.91Z" fill="currentColor"/>
</g>
</g>
<g id="label" color="#E35453">
<g id="labels-side">
<path id="path2410" d="M441.829 608.9C440.902 608.337 436.985 609.864 436.985 609.864L435.009 602.751L433.069 597.915L430.9 590.592C430.9 590.592 436.222 589.42 436.404 589.973C436.588 590.524 442.947 609.574 441.829 608.9Z" fill="currentColor"/>
<path id="path2498" d="M687.932 598.313C688.839 597.763 692.683 599.259 692.683 599.259L694.627 592.277L696.528 587.532L698.655 580.344C698.655 580.344 693.438 579.198 693.254 579.739C693.074 580.28 686.834 598.974 687.932 598.313Z" fill="currentColor"/>
</g>
<g id="label-neck">
<path id="path2474" d="M287.569 129.901H278.069L277.973 108.616L287.479 108.578L287.569 129.901Z" fill="currentColor"/>
<path id="path2478" d="M280.407 122.835C280.52 122.89 280.69 122.94 280.865 122.94C281.083 122.94 281.205 122.849 281.205 122.716C281.203 122.59 281.108 122.513 280.865 122.44C280.553 122.339 280.354 122.193 280.35 121.956C280.346 121.683 280.601 121.474 281.012 121.474C281.219 121.474 281.363 121.519 281.464 121.561L281.385 121.804C281.314 121.774 281.185 121.727 281.004 121.727C280.79 121.727 280.699 121.829 280.699 121.926C280.699 122.055 280.81 122.114 281.065 122.199C281.391 122.307 281.551 122.452 281.551 122.693C281.555 122.957 281.328 123.19 280.85 123.19C280.646 123.19 280.439 123.143 280.33 123.088L280.407 122.835Z" fill="#D1D3D4"/>
<path id="path2482" d="M282.182 121.506L282.205 123.163H281.862L281.844 121.506H282.182Z" fill="#D1D3D4"/>
<path id="path2486" d="M282.469 122.995L283.413 121.761V121.757H282.536L282.53 121.506H283.856V121.683L282.921 122.906V122.914H283.885L283.891 123.163H282.469V122.995Z" fill="#D1D3D4"/>
<path id="path2490" d="M285.211 122.43H284.504L284.508 122.914H285.3L285.302 123.163H284.168L284.145 121.506H285.243L285.245 121.757H284.492L284.5 122.181H285.211V122.43Z" fill="#D1D3D4"/>
<path id="path2494" d="M284.309 124.389L282.859 126.56L281.397 124.442L281.355 124.389H280.502L280.549 128.363H281.33L281.296 125.56L282.874 127.846L284.4 125.554L284.439 128.363H285.223L285.17 124.389H284.309Z" fill="#D1D3D4"/>
</g>
</g>
<g id="stitches" color="#58595B">
<g id="g2386">
<g id="g2392">
<path id="path2394" d="M483.056 149.005C483.013 149.228 482.96 149.451 482.896 149.686L482.924 149.696L483.056 149.005Z" fill="currentColor"/>
</g>
<g id="g2396">
<path id="path2398" d="M206.98 108.754C206.98 108.754 240.162 104.268 281.462 104.268C322.749 104.268 347.968 105.21 358.448 107.337" stroke="currentColor" stroke-width="0.329333" stroke-dasharray="2.64 1.32"/>
</g>
<g id="g2400">
<path id="path2402" d="M23.6562 297.78C23.6562 297.78 48.8573 307.168 60.1274 314.108C71.3955 321.046 113.708 339.032 118.226 332.719" stroke="currentColor" stroke-width="0.329333" stroke-dasharray="2.64 1.32"/>
</g>
<g id="g2404">
<path id="path2406" d="M25.1094 295.271C25.1094 295.271 49.54 304.658 60.4723 311.6C71.4026 318.54 112.453 336.526 116.838 330.213" stroke="currentColor" stroke-width="0.329333" stroke-dasharray="2.64 1.32"/>
</g>
<g id="g2412">
<path id="path2414" d="M483.361 146.155C479.785 144.026 470.244 137.637 450.315 132.669C430.379 127.7 423.694 122.971 423.694 122.971C423.694 122.971 385.36 107.387 374.467 104.414" stroke="currentColor" stroke-width="0.329333" stroke-dasharray="2.64 1.32"/>
</g>
<g id="g2416">
<path id="path2418" d="M483.263 147.616C483.263 147.616 490.543 152.29 494.731 159.546C498.919 166.802 501.285 179.417 505.537 191.72C509.794 204.02 519.3 233.041 522.899 243.136C526.492 253.227 533.415 277.519 537.648 288.24C541.883 298.967 544.801 305.271 544.801 305.271C544.801 305.271 546.739 309.057 543.304 311.582C539.86 314.107 526.674 318.836 520.084 321.991C513.506 325.146 494.435 339.023 483.437 342.496C472.446 345.961 447.807 356.493 444.281 345.554" stroke="currentColor" stroke-width="0.669333"/>
</g>
<g id="g2420">
<path id="path2422" d="M541.418 297.501C541.418 297.501 515.492 307.167 504.222 314.106C492.952 321.044 450.645 339.031 446.125 332.719" stroke="currentColor" stroke-width="0.329333" stroke-dasharray="2.64 1.32"/>
</g>
<g id="g2424">
<path id="path2426" d="M539.968 294.99C539.968 294.99 514.818 304.656 503.882 311.598C492.952 318.538 451.897 336.526 447.512 330.213" stroke="currentColor" stroke-width="0.329333" stroke-dasharray="2.64 1.32"/>
</g>
<g id="g2428">
<path id="path2430" d="M191.651 104.485C180.758 107.46 142.42 123.038 142.42 123.038C142.42 123.038 135.739 127.769 115.808 132.74C95.8718 137.704 86.3283 144.093 82.7527 146.222C79.181 148.352 81.7215 152.844 84.2204 161.364C86.7174 169.882 96.5434 216.725 96.5434 216.725C100.55 237.064 114.72 315.374 114.72 315.374C114.72 315.374 116.132 322.786 117.622 331.877C118.507 337.274 118.285 334.864 118.935 340.237L119.084 341.454C119.084 341.454 120.018 344.415 120.067 351.845C120.093 355.99 120.771 361.077 120.763 367.359C120.747 384.918 121.245 406.21 121.261 407.395C121.274 408.579 120.777 445.008 122.438 464.41C124.103 483.805 123.143 491.616 121.016 496.817C118.882 502.023 116.243 517.637 113.54 528.519C110.838 539.4 109.317 568.973 113.207 577.491C117.1 586.008 116.875 598.507 116.219 601.62C115.253 606.161 114.121 613.686 113.926 616.764C113.726 619.838 112.606 624.804 111.035 631.43C109.461 638.051 108.953 646.331 109.68 651.775C110.405 657.216 110.259 660.056 109.548 661.947C108.833 663.839 106.545 670.226 111.081 673.539C115.617 676.85 138.504 690.806 171.596 688.681C204.693 686.551 223.288 678.983 231.539 676.615C239.791 674.25 264.387 673.774 281.91 675.194C299.434 676.615 322.16 678.033 342.604 685.84C363.05 693.649 397.226 702.638 409.502 700.743C421.777 698.853 435.862 689.388 438.409 685.133C440.957 680.876 441.39 677.563 442.091 676.85C442.788 676.137 442.607 661.236 441.745 648.936C440.884 636.635 439.12 628.119 438.573 622.202C438.023 616.288 437.225 609.188 435.505 603.749C433.78 598.309 428.436 586.954 430.226 578.432C432.008 569.919 435.214 561.403 435.438 560.222C435.659 559.039 440.651 542.006 440.436 524.258C440.21 506.519 439.266 430.576 436.649 410.232C436.649 410.232 436.599 406.21 437.968 401.953C439.333 397.692 442.755 368.599 443.306 355.822C443.859 343.044 449.629 312.292 449.629 312.292C449.629 312.292 463.795 233.985 467.804 213.641C467.804 213.641 477.626 166.801 480.129 158.283C482.622 149.764 485.17 145.274 481.594 143.141C478.021 141.013 468.477 134.626 448.543 129.662C428.606 124.688 421.929 119.958 421.929 119.958C421.929 119.958 383.587 104.376 372.697 101.403" stroke="currentColor" stroke-width="0.669333"/>
</g>
<g id="g2432">
<path id="path2434" d="M80.9883 149.234C84.5619 147.107 94.1054 140.716 114.04 135.752C133.97 130.783 140.651 126.048 140.651 126.048C140.651 126.048 178.989 110.466 189.884 107.495" stroke="currentColor" stroke-width="0.329333" stroke-dasharray="2.64 1.32"/>
</g>
<g id="g2436">
<path id="path2438" d="M81.0872 150.695C81.0872 150.695 73.8116 155.37 69.6196 162.626C65.4316 169.882 63.067 182.5 58.8138 194.799C54.5606 207.1 45.0507 236.124 41.4533 246.216C37.86 256.309 30.934 280.594 26.7005 291.318C22.4671 302.045 19.5493 308.353 19.5493 308.353C19.5493 308.353 17.6094 312.138 21.0467 314.663C24.488 317.187 37.6743 321.917 44.2585 325.071C50.8487 328.228 69.91 342.104 80.9114 345.575C91.9089 349.046 116.549 359.577 120.069 348.635" stroke="currentColor" stroke-width="0.669333"/>
</g>
<g id="g2440">
<path id="path2442" d="M110.107 656.064C110.107 656.064 129.135 666.443 144.287 667.389C159.441 668.338 175.195 667.069 182.425 665.495C189.668 663.92 234.037 655.461 248.236 656.064C262.44 656.666 299.725 662.036 302.562 661.876C305.399 661.712 346.143 665.833 350.266 667.713C354.39 669.6 399.99 683.79 410.403 684.106C420.818 684.42 440.466 673.361 442.439 663.907" stroke="currentColor" stroke-width="0.329333" stroke-dasharray="2.64 1.32"/>
</g>
<g id="g2444">
<path id="path2446" d="M110.076 653.458C110.076 653.458 129.104 663.838 144.258 664.784C159.404 665.73 175.162 664.472 182.396 662.893C189.632 661.315 233.999 652.86 248.205 653.458C262.407 654.057 299.694 659.432 302.537 659.272C305.367 659.108 346.108 663.231 350.234 665.112C354.361 666.99 399.955 681.184 410.37 681.504C420.78 681.818 440.436 670.758 442.412 661.303" stroke="currentColor" stroke-width="0.329333" stroke-dasharray="2.64 1.32"/>
</g>
<g id="g2448">
<path id="path2450" d="M356.683 108.779C357.77 106.997 358.722 105.128 359.449 103.161C359.449 103.161 362.175 95.5748 355.49 93.1351C343.473 92.2145 312.291 92.1098 296.576 92.2659C277.676 92.4417 233.305 92.2659 221.814 93.5322C217.26 94.03 214.009 94.2236 211.559 94.3599C210.925 94.6661 202.851 98.6743 204.965 104.008C205.459 105.227 206.729 107.459 208.766 110.199" stroke="currentColor" stroke-width="0.669333"/>
</g>
<g id="g2452">
<path id="path2454" d="M189.81 111.634C208.271 147.157 253.944 153.301 253.944 153.301C253.944 153.301 292.963 160.895 326.783 149.627C350.118 141.861 367.693 128.552 374.689 110.483C376.682 105.354 375.011 102.707 374.525 102.087C369.299 99.1337 362.672 94.9358 360.161 93.7979C359.584 93.5391 357.919 93.3218 355.491 93.1361C362.174 95.5759 359.448 103.162 359.448 103.162C353.142 120.315 331.309 130.354 319.994 134.364C297.685 142.28 271.676 142.46 244.59 134.787C219.685 127.731 206.817 108.636 204.966 104.009C202.852 98.6754 210.924 94.6671 211.56 94.3609C207.834 94.5644 205.981 94.6513 204.381 95.5245C202.056 96.7947 195.031 101.828 190.857 103.897C190.314 104.458 187.661 107.5 189.81 111.634Z" stroke="currentColor" stroke-width="0.669333"/>
</g>
<g id="g2456">
<path id="path2458" d="M207.297 107.465C207.297 107.465 240.378 102.989 281.535 102.989C322.69 102.989 347.824 103.929 358.27 106.051L354.857 110.998C354.857 110.998 337.727 108.532 281.332 108.532C243.924 108.532 211.414 113.194 211.414 113.194L207.297 107.465Z" stroke="currentColor" stroke-width="0.669333"/>
</g>
<g id="g2460">
<path id="path2462" d="M192.726 102.939C192.194 103.489 189.595 106.474 191.693 110.521C209.774 145.313 254.511 151.325 254.511 151.325C254.511 151.325 292.718 158.762 325.841 147.723C348.689 140.114 365.911 127.092 372.766 109.391C374.708 104.368 373.078 101.776 372.602 101.167" stroke="currentColor" stroke-width="0.329333" stroke-dasharray="2.64 1.32"/>
</g>
<g id="g2464">
<path id="path2466" d="M189.079 104.896C188.522 105.471 185.814 108.578 188 112.792C206.831 149.02 253.414 155.282 253.414 155.282C253.414 155.282 293.206 163.028 327.696 151.535C351.487 143.611 369.414 130.044 376.547 111.618C378.578 106.385 376.875 103.689 376.379 103.055" stroke="currentColor" stroke-width="0.329333" stroke-dasharray="2.64 1.32"/>
</g>
<g id="g2468">
<path id="path2470" d="M354.993 109.756C354.993 109.756 337.807 107.283 281.223 107.283C243.687 107.283 211.066 111.957 211.066 111.957" stroke="currentColor" stroke-width="0.329333" stroke-dasharray="2.64 1.32"/>
</g>
<g id="g2500">
<path id="path2502" d="M647.176 144.217C650.688 142.127 660.048 135.857 679.609 130.983C699.172 126.108 705.729 121.467 705.729 121.467C705.729 121.467 743.346 106.175 754.037 103.257" stroke="currentColor" stroke-width="0.324" stroke-dasharray="2.59 1.29"/>
</g>
<g id="g2504">
<path id="path2506" d="M647.277 145.649C647.277 145.649 640.132 150.238 636.021 157.356C631.908 164.477 629.585 176.86 625.415 188.93C621.238 201 611.908 229.48 608.38 239.385C604.856 249.288 598.062 273.124 593.904 283.644C589.746 294.169 586.887 300.36 586.887 300.36C586.887 300.36 584.983 304.076 588.357 306.551C591.733 309.029 604.674 313.669 611.134 316.765C617.598 319.86 636.311 333.483 647.097 336.889C657.893 340.292 682.067 350.626 685.526 339.887" stroke="currentColor" stroke-width="0.656"/>
</g>
<g id="g2508">
<path id="path2510" d="M589.182 297.185C589.182 297.185 614.624 306.669 625.68 313.479C636.741 320.29 678.26 337.941 682.697 331.742L684.228 330.58" stroke="currentColor" stroke-width="0.324" stroke-dasharray="2.59 1.29"/>
</g>
<g id="g2512">
<path id="path2514" d="M590.602 294.725C590.602 294.725 615.287 304.209 626.016 311.018C636.745 317.828 677.026 335.477 681.331 329.281L683.601 327.476" stroke="currentColor" stroke-width="0.324" stroke-dasharray="2.59 1.29"/>
</g>
<g id="g2516">
<path id="path2518" d="M755.77 100.302C745.085 103.222 707.464 118.51 707.464 118.51C707.464 118.51 700.906 123.153 681.341 128.03C661.781 132.904 652.42 139.17 648.909 141.258C645.399 143.352 647.898 147.763 650.353 156.117C652.803 164.479 662.443 210.445 662.443 210.445C666.374 230.407 680.278 307.249 680.278 307.249C680.278 307.249 685.938 337.428 686.481 349.966C687.02 362.503 690.38 391.052 691.724 395.232C693.065 399.412 693.014 403.359 693.014 403.359C690.448 423.322 689.519 497.842 689.304 515.254C689.086 532.666 693.988 549.38 694.201 550.544C694.424 551.704 697.567 560.062 699.323 568.416C701.076 576.778 695.829 587.922 694.138 593.256C692.447 598.597 691.662 605.563 691.127 611.367C690.59 617.171 688.861 625.525 688.016 637.601C687.518 644.699 687.251 652.678 687.257 658.189C687.257 658.189 687.269 660.995 688.887 662.632C688.887 662.632 726.111 696.267 843.017 696.267C959.92 696.267 1012.88 661.334 1012.88 661.334L1013.87 660.396C1016.41 656.992 1014.61 651.992 1014 650.366C1013.3 648.51 1013.16 645.726 1013.87 640.384C1014.58 635.045 1014.09 626.92 1012.54 620.422C1011 613.919 1009.9 609.046 1009.7 606.027C1009.51 603.011 1008.4 595.622 1007.46 591.168C1006.81 588.115 1006.59 575.846 1010.41 567.492C1014.23 559.133 1012.74 530.114 1010.08 519.434C1007.43 508.755 1004.84 493.435 1002.75 488.326C1000.66 483.218 999.721 475.557 1001.35 456.523C1002.98 437.486 1002.49 401.732 1002.5 400.574C1002.52 399.412 1003.01 378.52 1003 361.286C1002.99 355.118 1003.65 350.13 1003.68 346.065C1003.73 338.773 1004.64 335.867 1004.64 335.867L1004.79 334.672C1005.43 329.4 1005.21 331.762 1006.08 326.466C1007.54 317.549 1008.93 310.271 1008.93 310.271C1008.93 310.271 1022.83 233.429 1026.76 213.467C1026.76 213.467 1036.4 167.502 1038.85 159.142C1041.31 150.786 1043.8 146.37 1040.29 144.282C1036.79 142.194 1027.42 135.926 1007.86 131.054C988.301 126.177 981.741 121.537 981.741 121.537C981.741 121.537 945.73 105.522 931.23 100.553" stroke="currentColor" stroke-width="0.656"/>
</g>
<g id="g2520">
<path id="path2522" d="M1042.03 147.241C1038.52 145.151 1029.16 138.881 1009.6 134.008C990.037 129.13 983.481 124.49 983.481 124.49C983.481 124.49 942.004 105.693 931.836 101.904" stroke="currentColor" stroke-width="0.324" stroke-dasharray="2.59 1.29"/>
</g>
<g id="g2524">
<path id="path2526" d="M1041.93 148.673C1041.93 148.673 1049.07 153.262 1053.19 160.382C1057.29 167.501 1059.62 179.884 1063.79 191.954C1067.97 204.024 1077.3 232.504 1080.83 242.405C1084.35 252.31 1091.15 276.142 1095.3 286.67C1099.46 297.193 1102.32 303.384 1102.32 303.384C1102.32 303.384 1104.23 307.098 1100.85 309.575C1097.48 312.052 1084.53 316.695 1078.07 319.79C1071.61 322.886 1052.9 336.507 1042.11 339.909C1031.32 343.316 1007.14 353.648 1003.68 342.913" stroke="currentColor" stroke-width="0.656"/>
</g>
<g id="g2528">
<path id="path2530" d="M1099 298.727C1099 298.727 1073.56 308.209 1062.5 315.022C1051.44 321.83 1009.92 339.483 1005.49 333.288" stroke="currentColor" stroke-width="0.324" stroke-dasharray="2.59 1.29"/>
</g>
<g id="g2532">
<path id="path2534" d="M1100.96 300.337C1100.96 300.337 1072.23 311.741 1061.18 318.55C1050.12 325.364 1008.6 343.013 1004.17 336.818" stroke="currentColor" stroke-width="0.324" stroke-dasharray="2.59 1.29"/>
</g>
<g id="g2536">
<path id="path2538" d="M1014.87 653.242C1014.87 653.242 959.92 688.706 843.018 688.706C726.113 688.706 687.285 654.497 687.285 654.497" stroke="currentColor" stroke-width="0.324" stroke-dasharray="2.59 1.29"/>
</g>
<g id="g2540">
<path id="path2542" d="M1014.27 651.091C1014.27 651.091 959.92 684.857 843.018 684.857C726.111 684.857 687.266 652.276 687.266 652.276" stroke="currentColor" stroke-width="0.324" stroke-dasharray="2.59 1.29"/>
</g>
<g id="g2544">
<path id="path2546" d="M750.838 101.363L754.344 102.422C759.777 103.745 798.257 108.392 840.73 108.075C841.862 108.068 842.988 108.06 844.106 108.046L846.745 108.075C889.214 108.392 927.702 103.745 933.127 102.422L934.985 101.902" stroke="currentColor" stroke-width="0.290667" stroke-dasharray="2.32 1.16"/>
</g>
<g id="g2548">
<path id="path2550" d="M845.62 93.8302C882.591 93.765 917.357 93.3778 913.999 92.2123C916.407 92.4158 918.053 92.637 918.62 92.8781C921.081 93.931 927.571 97.7812 932.685 100.492C932.906 100.754 890.855 106.155 845.432 105.867L844.101 105.849C843.416 105.853 842.732 105.863 842.043 105.867C796.623 106.155 754.569 100.754 754.79 100.492C759.914 97.7812 766.394 93.931 768.859 92.8781C769.426 92.637 771.066 92.4158 773.478 92.2123C770.12 93.3778 807.13 93.765 844.101 93.8302H845.62Z" stroke="currentColor" stroke-width="0.589333"/>
</g>
<g id="g2552">
<path id="path2554" d="M929.902 98.8779C919.966 100.16 884.646 104.279 845.327 103.99L844.102 103.975C843.454 103.979 842.802 103.985 842.15 103.99C802.834 104.279 767.515 100.16 757.578 98.8779" stroke="currentColor" stroke-width="0.290667" stroke-dasharray="2.32 1.16"/>
</g>
</g>
</g>
</g>
<g id="effects" filter="url(#filter0_f_44:465)">
<g id="g1698">
<g id="g1704">
<g id="g1718">
<g id="g1716" opacity="0.399994">
<g id="g1714" opacity="0.399994">
<path id="path1712" opacity="0.399994" d="M88.0039 189.749C88.0039 189.749 92.9564 207.258 95.8722 213.88C95.8722 213.88 96.2871 208.914 96.7335 206.786C97.178 204.656 97.6482 223.105 99.1298 228.552C100.617 233.988 91.0738 208.439 88.0039 189.749Z" fill="#6A6A6A"/>
</g>
</g>
</g>
</g>
<g id="g1720">
<g id="g1734">
<g id="g1732" opacity="0.399994">
<g id="g1730" opacity="0.399994">
<path id="path1728" opacity="0.399994" d="M98.6656 226.18C96.2081 227.025 94.5843 223.3 93.6301 221.516C94.0845 223.715 95.2026 225.84 95.5937 228.027C94.2089 227.768 93.2805 226.419 92.0774 225.735C92.5851 227.509 97.8912 231.749 95.7044 233.452C98.873 234.376 97.6443 238.416 95.2816 236.61C95.1374 238.157 97.1702 240.636 97.6818 242.205C98.2982 244.09 99.1555 245.619 98.4937 247.894C103.124 249.544 106.471 257.679 107.919 261.843C109.357 265.97 113.008 272.208 112.265 276.541C110.236 275.608 108.65 272.06 107.435 270.178C105.756 267.566 103.8 265.249 101.666 262.914C97.7905 258.676 95.7221 254.745 93.4997 249.437C93.879 254.951 98.4424 260.332 101.101 264.972C103.709 269.524 107.245 275.071 107.865 280.268C105.165 277.481 103.156 273.593 100.864 270.462C98.2567 266.9 95.5266 263.437 93.4168 259.536C87.7057 248.985 85.1376 236.78 80.3866 225.716C79.219 223.001 77.8698 220.431 76.7754 217.735C78.1404 222.482 78.8022 227.195 80.5722 231.852C82.3996 236.672 84.1637 241.417 85.7203 246.29C88.3912 254.643 93.883 262.614 98.7347 269.891C104.227 278.115 110.491 287.096 112.577 296.841C111.125 295.146 110.41 292.777 108.505 291.497C108.831 294.877 112.304 297.664 111.856 301.384C106.737 297.601 104.825 289.597 99.683 285.582C101.003 290.529 105.451 294.739 107.919 299.28C109.963 303.05 112.164 307.795 112.996 311.973C110.809 309.312 109.286 306.112 107.245 303.289C104.878 300.013 102.275 296.821 99.9121 293.609C97.5593 290.41 94.8016 286.91 93.397 283.192C92.0873 279.739 91.3484 274.871 89.045 271.908C89.7918 275.541 91.7831 279.409 93.2706 282.783C94.5606 285.705 95.8249 288.546 97.5218 291.236C100.485 295.934 103.762 300.6 106.666 305.343C103.3 305.039 100.282 297.977 98.5135 295.075C96.5183 291.801 94.5507 288.532 92.3698 285.318C87.0083 277.416 85.0961 267.088 78.9642 259.621C80.3273 264.795 83.2688 270.116 85.3667 275.152C87.7649 280.887 90.8388 286.029 93.9719 291.295C98.7347 299.292 103.456 307.283 107.877 315.355C112.468 323.741 114.671 333.355 121.538 340.368C122.298 337.928 121.824 336.093 121.459 333.839C121.097 331.672 123.614 329.863 123.586 327.67C123.523 323.199 122.432 318.826 121.707 314.482C120.981 310.124 121.658 305.772 121.658 301.596C121.654 296.133 123.829 291.301 124.015 285.865C124.135 282.408 123.106 279.01 122.934 275.622C122.812 273.323 123.673 270.946 124.331 268.761C125.797 263.894 125.048 259.174 123.855 254.429C123.221 255.117 122.857 255.972 122.662 256.897C120.838 257.094 118.892 254.186 117.676 252.995C117.67 255.103 119.546 256.847 119.837 258.825C120.097 260.624 118.873 262.086 118.989 263.801C119.114 265.717 120.534 267.6 120.261 269.708C120.153 270.533 119.11 274.512 118.671 274.69C116.796 275.458 113.181 267.805 112.415 266.397C110.499 262.886 108.422 259.516 106.607 255.984C104.159 251.225 102.099 246.859 101.17 241.61C100.73 239.121 100.297 236.63 99.6632 234.218C99.2187 232.529 97.3203 227.075 98.6616 225.941" fill="#6A6A6A"/>
</g>
</g>
</g>
</g>
<g id="g1736">
<g id="g1750">
<g id="g1748" opacity="0.399994">
<g id="g1746" opacity="0.399994">
<path id="path1744" opacity="0.399994" d="M486.181 165.15C483.135 166.189 481.27 176.863 480.816 179.946C479.974 185.738 478.718 191.75 478.254 197.589C477.329 209.197 476.893 220.54 473.145 231.423C472.539 233.181 470.534 235.706 470.733 237.604C470.82 238.489 472.049 239.066 472.248 240.131C472.466 241.3 471.918 243.114 471.685 244.309C470.393 250.937 468.697 257.306 466.683 263.785C464.967 269.309 464.435 274.777 462.863 280.138C461.705 284.087 458.015 288.52 455.449 291.632C454.436 292.86 452.934 294.567 452.658 295.598C452.235 289.694 455.006 286.896 451.259 281.683C447.948 277.062 448.466 272.339 446.69 267.185C444.813 261.745 442.668 257.073 441.563 251.541C440.501 246.237 439.922 239.702 439.876 234.209C439.843 230.746 439.116 228.448 437.988 225.266C437.17 222.958 437.121 219.639 435.422 217.893C431.374 227.865 434.673 242.302 437.701 252.087C439.39 257.568 441.008 262.185 441.842 267.801C442.529 272.467 446.247 280.516 444.596 284.964C441.571 282.137 440.388 274.01 436.684 281.918C434.209 287.201 436.84 293.66 437.905 299.012C439.622 307.651 434.191 315.053 433.27 323.369C432.686 328.616 433.162 333.867 432.543 339.023C431.911 344.27 428.634 348.341 425.609 352.587C423.286 355.846 421.123 360.115 418.595 363.037C416.032 361.688 415.345 356.595 414.48 353.987C412.741 348.709 411.1 343.259 409.176 338.077C406.582 331.08 404.104 323.338 402.119 315.914C400.669 310.478 400.675 304.99 398.988 299.607C397.943 296.305 396.675 293.052 395.865 289.781C394.243 283.25 391.458 276.857 389.693 270.263C386.653 258.892 383.024 245.083 376.047 235.595C377.985 245.955 382.692 255.257 386.687 264.728C389.018 270.241 390.432 275.539 391.685 281.448C392.933 287.329 395.695 292.487 396.902 298.338C399.664 311.75 400.568 325.256 404.417 338.496C406.412 345.358 407.664 352.446 409.598 359.289C411.874 367.334 413.044 374.862 413.97 383.106C414.28 385.889 414.403 388.75 414.369 391.628C417.273 388.997 418.782 383.477 420.635 379.977C423.352 374.856 426.449 369.957 429.169 364.844C431.488 360.508 433.733 356.002 437.014 352.275C439.138 349.87 442.059 348.932 443.732 346.384C446.089 348.964 451.753 351.305 455.427 350.358C458.598 349.541 459.864 347.421 459.052 344.331C458.398 341.832 457.95 339.554 457.494 336.856C456.585 331.431 456.273 326.838 458.916 321.534C459.485 320.392 460.168 319.976 460.269 318.749C460.4 317.326 459.222 315.42 459.343 313.743C459.544 310.973 460.336 308.342 460.469 305.561C460.591 302.989 460.03 300.245 460.386 297.71C460.789 294.83 462.642 292.639 464.145 290.263C467.158 285.502 468.872 280.998 470.285 275.824C471.685 270.715 473.094 265.079 475.407 260.417C477.645 255.911 481.205 252.205 483.441 247.762C485.385 243.91 485.964 238.993 486.122 234.61C486.553 237.654 484.263 246.2 481.401 247.42C482.549 237.768 484.686 227.727 484.99 217.867C485.085 214.76 486.357 213.043 487.442 210.155C488.321 207.81 488.295 205.442 488.746 203.069C489.265 200.337 490.267 197.504 490.496 194.723C490.721 191.981 490.361 189.166 491.094 186.532C488.431 190.118 489.637 196.754 488.084 200.912C487.62 202.155 486.367 207.077 485.091 207.642C482.258 208.889 482.971 204.727 483.198 203.069C483.797 198.614 484.046 194.018 484.02 189.502C483.973 181.064 484.81 172.819 486.177 164.536" fill="#6A6A6A"/>
</g>
</g>
</g>
</g>
<g id="g1752">
<g id="g1766">
<g id="g1764" opacity="0.399994">
<g id="g1762" opacity="0.399994">
<path id="path1760" opacity="0.399994" d="M504.847 246.23C503.767 249.794 504.029 254.128 503.518 257.877C502.872 262.579 502.913 267.581 501.785 272.203C499.98 279.584 496.7 286.792 494.267 294.007C492.449 299.384 490.288 304.556 486.442 308.809C483.417 312.151 478.647 315.197 476.543 319.299C476.282 319.806 475.798 320.235 475.529 320.707C496.064 310.907 501.449 283.736 506.374 263.802C507.234 260.305 509.215 256.322 509.259 252.812C508.202 254.714 507.449 257.504 505.681 258.835C505.365 254.809 504.93 250.829 504.851 246.846" fill="#6A6A6A"/>
</g>
</g>
</g>
</g>
<g id="g1768">
<g id="g1782">
<g id="g1780" opacity="0.399994">
<g id="g1778" opacity="0.399994">
<path id="path1776" opacity="0.399994" d="M499.75 189.812C497.478 193.929 497.81 200.16 498.091 204.603C498.47 210.646 497.464 217.455 495.617 223.105C493.889 228.391 493.035 233.526 491.651 238.844C490.321 243.956 487.715 248.693 486.129 253.628C483.423 262.085 480.059 272.3 474.428 279.291C471.916 282.413 469.681 285.461 467.921 289.08C466.418 292.173 463.04 296.251 462.627 299.516C466.896 299.905 471.617 288.965 474.193 285.927C478.794 280.51 481.906 276.162 484.491 269.343C486.378 264.373 488.527 259.87 491.319 255.469C494.26 250.825 493.845 246.133 495.696 241.224C497.142 237.398 498.792 234.134 499.325 229.873C499.904 225.219 499.892 220.383 500.054 215.713C500.331 207.756 499.705 198.516 499.148 191.049" fill="#6A6A6A"/>
</g>
</g>
</g>
</g>
<g id="g1784">
<g id="g1798">
<g id="g1796" opacity="0.399994">
<g id="g1794" opacity="0.399994">
<path id="path1792" opacity="0.399994" d="M478.368 163.016C478.522 159.084 468.507 156.483 465.571 154.883C459.803 151.738 453.955 153.176 447.513 154.108C437.049 155.631 426.781 156.838 416.427 159.306C408.49 161.198 400.272 163.357 392.289 164.26C390.066 164.509 388.213 164.549 386.056 164.043C392.471 160.163 399.561 158.843 406.767 157.247C417.494 154.875 427.901 151.23 438.697 148.893C441.476 148.286 453.118 147.068 454.429 144.025C456.247 139.796 440.32 141.165 438.027 140.948C431.933 140.375 425.546 139.012 419.159 138.409C408.745 137.429 397.901 136.523 387.421 136.517C375.011 136.517 362.609 135.306 350.646 133.384C349.228 133.152 347.782 133.05 346.551 132.489C352.329 132.038 358.71 133.848 364.514 134.614C370.622 135.428 376.276 135.886 382.528 136.203C396.066 136.89 409.715 136.894 423.094 137.532C427.664 137.751 432.642 138.219 437.375 138.409C441.036 138.557 448.339 138.988 451.18 136.754C449.888 135.104 446.812 134.272 444.864 133.269C442.337 131.967 440.506 130.448 438.197 128.86C433.665 125.742 428.059 124.425 422.685 124.215C415.303 123.929 407.933 126.307 400.574 126.734C394.043 127.107 387.453 127.149 381.072 126.106C376.062 125.296 370.904 123.048 365.926 122.894C367.509 120.377 370.274 120.26 371.242 116.995C377.099 119.62 382.566 121.795 388.913 122.937C393.986 123.85 398.899 124.529 404.165 124.529C407.518 124.529 412.954 125.476 416.038 124.142C414.207 122.015 409.385 121.205 406.621 120.428C401.844 119.089 396.941 118.481 392.087 117.347C388.654 116.549 385.157 115.567 381.878 114.753C379.476 114.154 375.922 113.931 373.99 112.619C385.718 112.645 396.935 117.23 408.764 119.565C418.456 121.473 427.656 123.905 436.737 126.298C441.109 127.451 445.631 129.051 450.087 130.055C454.666 131.078 459.534 132.633 463.951 134.421C469.872 136.817 484.079 141.927 483.354 146.623C482.892 149.632 480.158 161.103 477.734 163.016" fill="#6A6A6A"/>
</g>
</g>
</g>
</g>
<g id="g1800">
<g id="g1814">
<g id="g1812" opacity="0.399994">
<g id="g1810" opacity="0.399994">
<path id="path1808" opacity="0.399994" d="M365.893 376.878C367.406 380.189 367.821 384.427 368.876 388.002C369.899 391.455 371.237 394.723 372.542 398.081C375.318 405.226 377.874 412.447 380.849 419.475C383.315 425.285 385.423 432.5 390.28 436.731C395.411 441.208 400.476 445.141 405.284 450.058C414.326 459.297 422.544 470.069 429.58 480.966C435.534 490.189 437.358 501.718 439.485 511.882C441.633 522.097 437.304 531.651 437.954 542.16C438.112 544.663 438.739 547.468 438.316 550.048C437.855 552.841 436.135 555.376 435.254 558.021C433.675 562.742 433.5 567.614 432.054 572.442C431.113 575.589 427.463 584.184 426.034 577.09C425.027 572.108 425.337 567.401 425.216 562.351C425.159 559.894 424.687 557.507 424.902 555.095C425.143 552.344 425.908 549.706 426.046 546.893C426.236 542.826 427.253 534.116 424.979 530.831C422.579 537.721 420.926 545.702 419.414 552.972C418.96 555.18 418.897 558.537 417.694 560.471C415.724 563.637 415.495 561.423 415.464 558.566C415.333 545.888 416.607 534.252 419.335 522.071C422.058 509.891 423.201 496.321 414.964 485.926C412.68 483.05 405.458 474.423 403.466 481.284C402.629 484.156 404.423 486.746 401.9 489.107C400.252 490.652 397.524 491.066 395.604 489.567C391.677 486.515 391.017 475.577 390.073 471.191C388.818 465.334 386.001 460.247 384.283 454.481C383.415 451.571 383.084 448.758 381.821 445.959C380.114 442.185 377.975 438.938 376.689 434.929C375.705 431.858 374.04 428.614 373.184 425.451C372.367 422.452 372.527 419.116 372.047 416.066C370.936 408.956 369.287 401.85 367.708 394.839C366.492 389.413 364.348 382.965 365.897 377.192" fill="#6A6A6A"/>
</g>
</g>
</g>
</g>
<g id="g1816">
<g id="g1830">
<g id="g1828" opacity="0.399994">
<g id="g1826" opacity="0.399994">
<path id="path1824" opacity="0.399994" d="M328.457 461.098C329.366 471.096 335.34 480.684 338.289 490.228C341.294 499.941 345.592 508.631 350.93 517.162C358.743 529.652 363.247 543.627 371.279 556.043C377.233 565.241 383.508 573.788 390.297 582.473C393.861 587.032 397.8 591.052 401.397 595.469C405.443 600.442 410.473 604.675 414.833 609.347C418.732 613.527 422.958 617.12 416.249 620.386C415.056 620.967 413.282 621.561 412.174 621.889C414.923 622.666 424.396 628.801 417.671 630.261C413.981 631.061 409.637 623.361 406.142 621.336C400.038 617.8 392.348 616.417 387.077 610.91C383.144 606.797 380.189 601.492 376.443 597.131C372.761 592.844 368.628 588.923 364.995 584.659C358.573 577.119 355.294 568.467 352.303 559.13C349.413 550.103 346.997 541.134 343.777 532.144C341.495 525.773 337.564 520.127 335.344 513.766C334.299 510.783 333.253 508.025 335.008 505.818C337.169 503.078 338.771 503.42 338.093 499.264C337.335 494.586 335.203 490.507 334.441 485.704C333.836 481.915 333.572 474.715 331.428 471.823" fill="#6A6A6A"/>
</g>
</g>
</g>
</g>
<g id="g1832">
<g id="g1846">
<g id="g1844" opacity="0.399994">
<g id="g1842" opacity="0.399994">
<path id="path1840" opacity="0.399994" d="M424.108 568.658C423.203 570.619 423.651 572.869 423.562 575.042C423.406 578.776 423.035 582.567 422.731 586.257C422.466 589.414 420.994 591.619 420.388 594.523C419.378 599.392 421.648 605.206 423.027 609.657C425.475 617.541 429.844 624.417 431.535 632.621C432.707 638.327 433.481 643.672 432.029 649.409C430.506 655.442 428.422 657.823 424.076 662.115C420.54 665.602 420.654 670.954 422.296 675.475C422.164 674.357 422.243 673.255 422.559 672.214C422.612 676.649 421.903 692.925 420.89 697.249C422.521 693.984 431.589 691.297 434.455 689.169C438.777 685.957 442.41 676.418 442.1 671.493C441.733 665.574 440.366 659.715 439.994 653.824C439.649 648.427 440.069 642.989 439.479 637.738C438.904 632.568 438.937 627.286 438.349 621.966C437.74 616.47 436.306 611.996 434.674 606.84C433.167 602.071 433.114 596.968 431.024 592.316C428.592 586.913 427.418 582.462 425.854 576.862C425.218 574.578 423.689 571.297 424.74 568.974" fill="#6A6A6A"/>
</g>
</g>
</g>
</g>
<g id="g1848">
<g id="g1862">
<g id="g1860" opacity="0.399994">
<g id="g1858" opacity="0.399994">
<path id="path1856" opacity="0.399994" d="M392.197 665.818C389.54 663.991 386.259 663.511 383.258 662.42C378.71 660.767 374.119 660.794 369.475 659.805C366.439 659.161 363.825 657.331 360.987 656.023C353.924 652.762 346.694 652.539 339.252 650.601C332.386 648.803 325.466 647.114 318.747 644.919C311.831 642.659 305.577 644.524 298.552 643.414C296.069 643.021 293.905 641.429 291.27 641.514C288.431 641.606 285.873 643.357 283.07 643.416C280.725 643.459 278.499 642.035 275.824 642.154C273.191 642.268 271.675 643.975 269.52 641.842C267.426 639.779 268.659 637.211 268.157 634.582C267.626 631.812 266.051 630.854 264.222 628.92C261.808 626.352 259.665 622.867 256.589 621.038C254.274 619.663 251.976 620.22 249.455 619.153C244.147 616.895 240.032 612.484 235.111 609.594C228.351 605.617 220.659 601.923 213.45 598.561C205.793 594.991 198.01 591.277 190.657 587.287C184.788 584.093 179.314 579.61 173.433 576.787C163.485 572.017 150.332 574.12 140.897 578.05C138.874 578.891 136.286 579.632 134.295 579.942C131.613 580.363 128.995 579.278 126.478 580.248C124.151 581.149 122.626 583.786 124.728 586.248C126.154 587.917 131.674 588.502 133.831 588.853C140.87 589.989 148.122 589.158 155.304 589.158C162.386 589.158 169.866 587.826 176.389 591.273C180.016 593.19 183.087 595.505 186.993 597.115C190.122 598.407 193.299 599.6 196.124 601.232C202.174 604.732 209.618 607.796 214.942 612.17C218.685 615.25 222.498 618.395 226.652 621.018C229.924 623.081 233.478 624.367 236.518 626.686C241.607 630.575 246.945 634.91 252.673 637.829C256.905 639.991 263.61 641.19 265.542 646.172C267.675 651.681 258.732 652.717 254.578 652.264C251.31 651.905 248.227 649.996 244.862 649.4C241.974 648.886 239.033 648.734 236.158 648.469C229.462 647.851 222.83 648.145 215.973 648.145C209.205 648.145 202.892 647.62 196.323 646.954C191.074 646.423 185.14 645.512 180.709 648.864C176.193 652.272 169.036 659.461 167.307 664.799C170 665.267 171.942 662.448 173.85 661.077C176.46 659.204 179.368 657.442 182.556 656.75C189.52 655.237 196.481 654.435 203.743 654.453C209.776 654.465 215.697 654.836 221.657 655.087C227.812 655.346 233.989 656.899 240.036 655.96C245.793 655.069 251.188 655.603 256.958 655.389C263.872 655.14 270.47 657.284 277.286 658.315C282.857 659.161 288.89 659.506 294.061 661.626C299.144 663.716 304.368 665.857 309.575 667.697C314.336 669.374 319.806 672.246 325.082 671.806C330.787 671.325 336.105 668.461 341.408 666.363C348.211 663.667 353.881 661.695 361.212 661.411C366.455 661.205 370.728 662.872 375.771 663.989C380.058 664.929 384.548 666.853 387.839 669.901C389.491 671.434 394.899 677.28 397.146 674.058C398.981 671.41 393.965 667.037 392.197 665.818Z" fill="#6A6A6A"/>
</g>
</g>
</g>
</g>
<g id="g1864">
<g id="g1878">
<g id="g1876" opacity="0.399994">
<g id="g1874" opacity="0.399994">
<path id="path1872" opacity="0.399994" d="M124.229 627.328C126.47 628.467 129.375 628.135 131.829 629.143C134.363 630.18 136.309 631.604 138.431 633.495C140.472 635.314 141.825 637.023 143.227 639.382C144.229 641.071 145.144 644.291 146.765 645.393C150.746 648.106 157.587 644.113 161.979 645.938C170.013 649.273 160.702 652.015 158.559 655.008C157.471 656.531 158.802 657.195 156.795 658.315C155.323 659.137 152.945 658.479 151.351 659.099C149.553 659.798 149.12 661.756 146.341 660.837C144.498 660.231 143.354 659.077 144.108 657.056C142.224 655.998 141.902 654.753 140.877 653.202C139.201 650.687 139.089 651.371 140.264 648.775C142.651 643.511 140.487 644.419 135.47 643.728C129.093 642.851 120.381 634.982 120.188 628.321C121.954 628.477 123.431 627.898 125.185 627.958" fill="#6A6A6A"/>
</g>
</g>
</g>
</g>
<g id="g1880">
<g id="g1894">
<g id="g1892" opacity="0.399994">
<g id="g1890" opacity="0.399994">
<path id="path1888" opacity="0.399994" d="M283.791 674.324C281.268 673.285 280.492 670.197 278.592 668.39C276.895 666.782 274.613 665.656 272.632 664.484C267.736 661.602 263.199 662.066 257.784 662.884C252.182 663.727 248.134 661.535 242.654 663.599C237.709 665.468 233.205 665.746 228.881 669.261C230.775 673.698 238.47 665.932 241.747 666.752C243.414 667.165 244.817 669.802 246.601 670.784C248.831 672.019 251.024 672.311 253.485 672.431C258.564 672.688 263.955 673.016 268.961 673.992C273.361 674.851 278.813 674.958 282.851 674.958" fill="#6A6A6A"/>
</g>
</g>
</g>
</g>
<g id="g1896">
<g id="g1910">
<g id="g1908" opacity="0.399994">
<g id="g1906" opacity="0.399994">
<path id="path1904" opacity="0.399994" d="M180.744 402.744C183.914 407.955 185.359 414.703 187.275 420.412C189.807 427.915 189.323 436.303 188.266 444.134C186.303 458.717 189.124 478.112 179.385 490.447C177.708 492.576 175.783 495.247 173.719 496.986C169.768 500.312 164.122 500.808 159.413 502.719C153.893 504.951 152.728 510.567 150.055 515.419C149.13 517.1 145.497 521.294 146.973 523.18C148.395 525.002 151.776 522.937 152.242 526.462C153.083 532.797 139.342 531.736 135.942 535.241C133.929 537.317 133.771 540.357 131.057 541.768C126.322 544.213 126.146 540.776 127.538 537.354C131.24 528.251 135.579 519.583 139.743 510.715C142.283 505.312 144.128 499.327 147.252 494.206C150.738 488.495 155.171 483.422 157.625 477.182C162.202 465.536 167.37 455.007 170.426 442.783C171.441 438.723 173.075 434.847 174.09 430.811C175.295 426.003 175.44 420.813 176.396 415.972C177.05 412.678 178.407 404.366 180.649 402.133C181.082 402.75 181.086 403.283 181.072 404.002" fill="#6A6A6A"/>
</g>
</g>
</g>
</g>
<g id="g1912">
<g id="g1926">
<g id="g1924" opacity="0.399994">
<g id="g1922" opacity="0.399994">
<path id="path1920" opacity="0.399994" d="M91.668 166.11C93.5466 164.383 92.8513 159.984 92.3614 157.617C91.587 153.881 91.8339 153.617 95.1053 150.778C99.8128 146.701 104.884 145.865 110.958 148.303C117.632 150.975 121.97 157.544 129.026 160.073C132.418 161.289 135.938 161.829 139.281 163.255C142.465 164.614 145.055 166.957 147.892 168.893C154.02 173.077 160.25 176.7 166.75 180.23C171.007 182.546 176.716 186.459 181.617 186.348C180.169 184.288 177.998 183.332 176.056 181.708C173.996 179.983 172.639 177.664 170.45 176.013C163.96 171.135 157.216 167.546 149.563 164.381C142.086 161.289 135.356 157.686 128.149 154.118C124.937 152.526 114.583 143.271 123.09 142.694C129.257 142.276 136.175 146.586 141.653 148.919C149.433 152.228 157.977 152.686 165.742 155.734C173.208 158.668 180.862 160.345 188.587 162.441C193.346 163.733 201.137 165.09 205.791 162.996C203.875 150.958 181.761 151.898 172.637 149.219C166.819 147.512 161.167 146.027 155.221 144.749C152.104 144.083 147.809 143.006 145.112 141.25C142.568 139.603 140.887 137.463 137.93 136.156C136.156 135.365 133.518 135.138 132.078 134.016C136.422 128.907 144.534 132.214 149.852 133.342C160.13 135.519 171.765 135.13 182.263 134.579C192.362 134.05 202.097 137.949 212.168 138.643C218.535 139.085 219.619 141.793 226.018 142.635C229.386 143.08 236.35 142.692 233.092 140.794C228.296 138.001 234.175 137.987 234.534 137.679C231.506 133.856 226.383 135.371 221.494 134.763C213.679 133.787 211.658 131.142 204.558 127.811C201.642 126.438 201.439 126.606 201.915 124.016C202.514 120.753 199.784 124.121 196.429 122.005C193.754 120.31 192.524 120.204 191.263 117.063C190.359 114.793 189.377 110.229 189.031 107.971C177.911 108.001 172.686 112.766 162.202 115.771C150.871 119.014 140.837 124.708 129.842 128.366C119.686 131.742 109.716 136.659 99.1135 138.86C95.6031 139.591 90.6467 140.33 88.6988 144.391C87.6222 146.624 87.9047 145.057 88.8312 146.989C90.0362 149.496 87.3338 152.418 86.7313 154.764C86.1959 156.853 85.139 158.632 85.7929 160.991C89.0999 161.993 90.1133 165.997 92.3298 166.645C92.2428 166.129 91.8438 166.673 91.6877 166.426" fill="#6A6A6A"/>
</g>
</g>
</g>
</g>
<g id="g1928">
<g id="g1942">
<g id="g1940" opacity="0.399994">
<g id="g1938" opacity="0.399994">
<path id="path1936" opacity="0.399994" d="M137.853 366.167C137.203 364.401 138.285 363.749 138.919 362.234C139.897 359.889 139.443 357.906 139.658 355.401C139.862 353.028 140.656 350.914 141.446 348.676C142.458 345.83 142.546 346.566 145.069 345.357C146.582 344.628 147.779 343.259 149.182 342.384C150.371 341.634 153.801 339.109 155.186 340.496C156.329 341.636 154.84 342.372 154.783 343.275C154.761 343.662 154.826 345.342 154.822 345.344C153.947 349.281 149.804 347.769 147.936 351.448C149.01 351.56 149.917 351.377 150.911 351.274C150.421 353.06 148.836 352.997 147.382 353.731C145.502 354.686 144.346 355.717 143.072 357.86C142.211 359.31 142.039 361.224 141.067 362.502C139.903 364.035 137.857 364.207 137.578 366.167" fill="#6A6A6A"/>
</g>
</g>
</g>
</g>
<g id="g1944">
<g id="g1958">
<g id="g1956" opacity="0.399994">
<g id="g1954" opacity="0.399994">
<path id="path1952" opacity="0.399994" d="M140.232 379.17C143.01 379.806 145.687 381.736 148.567 382.282C151.901 382.916 155.343 381.353 158.413 380.083C160.791 379.101 164.598 376.537 167.304 376.962C172.561 377.774 166.113 380.96 164.329 381.863C159.947 384.077 154.629 386.456 149.515 387.254C146.574 387.714 145.643 385.261 142.796 385.535C140.037 385.798 140.55 389.168 138.644 389.638C137.372 389.948 135.519 387.382 135.329 386.363C135.027 384.654 136.372 383.892 136.631 382.491C136.872 381.144 135.811 379.949 136.836 378.828C137.793 377.781 140.086 378.285 141.283 378.666C141.358 378.977 141.493 379.168 141.615 379.447" fill="#6A6A6A"/>
</g>
</g>
</g>
</g>
<g id="g1960">
<g id="g1974">
<g id="g1972" opacity="0.399994">
<g id="g1970" opacity="0.399994">
<path id="path1968" opacity="0.399994" d="M148.303 405.455C149.722 407.008 150.381 409.361 151.152 411.265C152.313 414.143 153.896 416.471 156.146 418.673C158.025 420.518 160.083 421.771 161.887 423.659C162.519 424.325 163.643 425.094 164.002 425.935C164.684 427.525 163.702 427.913 163.528 428.693C163.516 428.76 163.001 429.287 162.918 429.864C162.845 430.402 163.503 431.429 163.58 432.02C163.716 433.094 163.773 434.327 163.127 435.123C161.452 437.189 159.876 435.151 159.226 438.373C158.645 441.225 159.725 443.872 155.362 443.092C152.276 442.543 149.67 440.542 146.506 440.052C143.635 439.607 140.682 439.817 137.997 440.558C137.95 439.412 139.455 435.085 140.423 434.293C142.264 432.77 146.363 433.687 148.651 433.462C150.988 433.236 152.639 434.208 154.731 434.24C157.086 434.276 157.744 432.326 159.453 431.198C157.201 427.713 146.456 429.412 142.823 429.201C144.965 425.119 151.984 426.634 155.996 426.441C155.684 423.48 153.262 421.431 151.729 419.025C148.803 414.434 149.038 409.278 147.183 404.349" fill="#6A6A6A"/>
</g>
</g>
</g>
</g>
<g id="g1976">
<g id="g1990">
<g id="g1988" opacity="0.399994">
<g id="g1986" opacity="0.399994">
<path id="path1984" opacity="0.399994" d="M1035.14 187C1035.14 187 1030.28 204.181 1027.42 210.678C1027.42 210.678 1027.01 205.804 1026.58 203.716C1026.14 201.624 1025.68 219.734 1024.22 225.073C1022.77 230.413 1032.13 205.338 1035.14 187Z" fill="#6A6A6A"/>
</g>
</g>
</g>
</g>
<g id="g1992">
<g id="g2006">
<g id="g2004" opacity="0.399994">
<g id="g2002" opacity="0.399994">
<path id="path2000" opacity="0.399994" d="M1024.68 222.746C1027.09 223.574 1028.68 219.923 1029.62 218.171C1029.17 220.328 1028.08 222.412 1027.69 224.56C1029.05 224.305 1029.96 222.979 1031.14 222.312C1030.64 224.05 1025.43 228.208 1027.58 229.885C1024.47 230.79 1025.68 234.753 1028 232.983C1028.14 234.5 1026.15 236.932 1025.64 238.471C1025.04 240.322 1024.19 241.823 1024.85 244.054C1020.3 245.675 1017.02 253.654 1015.59 257.746C1014.19 261.793 1010.6 267.919 1011.33 272.17C1013.33 271.25 1014.88 267.767 1016.07 265.92C1017.72 263.356 1019.64 261.088 1021.73 258.793C1025.54 254.634 1027.57 250.778 1029.74 245.567C1029.38 250.98 1024.9 256.256 1022.29 260.813C1019.73 265.28 1016.25 270.722 1015.65 275.823C1018.3 273.089 1020.27 269.272 1022.51 266.201C1025.08 262.704 1027.76 259.306 1029.83 255.478C1035.43 245.122 1037.95 233.145 1042.62 222.288C1043.76 219.627 1045.09 217.104 1046.16 214.457C1044.82 219.115 1044.16 223.744 1042.43 228.313C1040.64 233.04 1038.91 237.698 1037.38 242.479C1034.76 250.675 1029.37 258.5 1024.61 265.642C1019.22 273.713 1013.07 282.524 1011.03 292.089C1012.45 290.42 1013.15 288.099 1015.02 286.844C1014.7 290.157 1011.29 292.895 1011.73 296.542C1016.75 292.838 1018.63 284.979 1023.68 281.04C1022.38 285.892 1018.01 290.023 1015.59 294.481C1013.59 298.18 1011.43 302.838 1010.61 306.935C1012.76 304.325 1014.25 301.186 1016.25 298.417C1018.58 295.199 1021.14 292.063 1023.45 288.911C1025.76 285.779 1028.47 282.34 1029.85 278.691C1031.13 275.306 1031.85 270.529 1034.12 267.619C1033.39 271.187 1031.43 274.982 1029.97 278.292C1028.71 281.163 1027.46 283.948 1025.8 286.587C1022.89 291.196 1019.67 295.773 1016.83 300.43C1020.12 300.133 1023.09 293.199 1024.83 290.351C1026.78 287.141 1028.71 283.934 1030.86 280.778C1036.12 273.026 1037.99 262.892 1044.01 255.561C1042.67 260.64 1039.79 265.861 1037.72 270.799C1035.38 276.432 1032.36 281.475 1029.28 286.647C1024.61 294.495 1019.97 302.332 1015.64 310.254C1011.13 318.481 1008.97 327.92 1002.23 334.799C1001.48 332.407 1001.95 330.603 1002.31 328.39C1002.66 326.265 1000.19 324.491 1000.23 322.342C1000.28 317.95 1001.36 313.659 1002.07 309.394C1002.78 305.119 1002.12 300.852 1002.12 296.751C1002.12 291.392 999.979 286.649 999.799 281.317C999.684 277.925 1000.69 274.588 1000.87 271.266C1000.98 269.006 1000.14 266.675 999.491 264.531C998.053 259.753 998.79 255.124 999.959 250.462C1000.58 251.144 1000.94 251.983 1001.13 252.89C1002.92 253.083 1004.83 250.229 1006.02 249.063C1006.03 251.13 1004.18 252.84 1003.9 254.782C1003.64 256.544 1004.84 257.985 1004.73 259.662C1004.61 261.548 1003.22 263.391 1003.49 265.458C1003.59 266.268 1004.62 270.177 1005.04 270.351C1006.88 271.104 1010.43 263.595 1011.19 262.212C1013.06 258.767 1015.1 255.462 1016.88 251.995C1019.28 247.327 1021.31 243.038 1022.22 237.886C1022.65 235.442 1023.07 233.003 1023.69 230.636C1024.13 228.977 1026 223.625 1024.68 222.511" fill="#6A6A6A"/>
</g>
</g>
</g>
</g>
<g id="g2008">
<g id="g2022">
<g id="g2020" opacity="0.399994">
<g id="g2018" opacity="0.399994">
<path id="path2016" opacity="0.399994" d="M644.402 162.857C647.393 163.876 649.22 174.354 649.665 177.379C650.495 183.06 651.725 188.961 652.18 194.692C653.088 206.082 653.517 217.214 657.197 227.894C657.79 229.62 659.756 232.097 659.564 233.956C659.473 234.825 658.27 235.392 658.076 236.435C657.865 237.583 658.4 239.361 658.63 240.54C659.896 247.04 661.559 253.292 663.535 259.647C665.22 265.07 665.739 270.439 667.286 275.7C668.418 279.568 672.041 283.924 674.556 286.974C675.551 288.183 677.029 289.858 677.3 290.87C677.715 285.076 674.996 282.33 678.667 277.211C681.922 272.679 681.411 268.043 683.161 262.986C684.998 257.646 687.102 253.059 688.187 247.628C689.228 242.429 689.793 236.015 689.844 230.622C689.876 227.23 690.585 224.972 691.693 221.851C692.495 219.585 692.548 216.329 694.212 214.61C698.188 224.401 694.949 238.563 691.979 248.17C690.318 253.547 688.73 258.083 687.914 263.59C687.234 268.169 683.592 276.067 685.213 280.431C688.177 277.654 689.338 269.683 692.977 277.446C695.405 282.626 692.821 288.967 691.778 294.218C690.091 302.695 695.423 309.959 696.327 318.117C696.896 323.267 696.428 328.421 697.037 333.48C697.661 338.627 700.875 342.627 703.84 346.787C706.12 349.991 708.245 354.178 710.725 357.044C713.239 355.72 713.917 350.724 714.765 348.166C716.473 342.984 718.079 337.639 719.966 332.554C722.512 325.681 724.946 318.09 726.892 310.806C728.314 305.468 728.31 300.083 729.966 294.805C730.989 291.565 732.236 288.369 733.034 285.16C734.62 278.752 737.356 272.478 739.085 266.006C742.068 254.845 745.631 241.297 752.474 231.985C750.576 242.152 745.957 251.279 742.036 260.574C739.748 265.987 738.362 271.182 737.131 276.982C735.906 282.756 733.192 287.814 732.01 293.554C729.302 306.719 728.415 319.974 724.636 332.963C722.682 339.697 721.455 346.653 719.553 353.372C717.319 361.262 716.173 368.65 715.264 376.739C714.956 379.471 714.84 382.279 714.873 385.104C712.027 382.52 710.539 377.101 708.72 373.671C706.057 368.646 703.02 363.84 700.348 358.82C698.074 354.563 695.873 350.144 692.647 346.485C690.565 344.128 687.703 343.204 686.057 340.705C683.748 343.237 678.189 345.533 674.579 344.606C671.47 343.804 670.226 341.722 671.024 338.688C671.664 336.238 672.11 334.004 672.555 331.353C673.448 326.033 673.752 321.523 671.162 316.32C670.603 315.197 669.931 314.793 669.825 313.586C669.704 312.191 670.856 310.318 670.739 308.671C670.542 305.954 669.765 303.372 669.633 300.642C669.51 298.12 670.064 295.425 669.718 292.942C669.323 290.115 667.503 287.962 666.026 285.631C663.07 280.963 661.391 276.541 660.002 271.463C658.63 266.449 657.241 260.919 654.973 256.344C652.776 251.927 649.284 248.284 647.091 243.926C645.186 240.145 644.616 235.317 644.459 231.017C644.037 234.008 646.281 242.393 649.092 243.593C647.968 234.118 645.874 224.265 645.572 214.589C645.477 211.539 644.228 209.852 643.164 207.019C642.302 204.721 642.33 202.398 641.887 200.069C641.38 197.388 640.394 194.605 640.167 191.879C639.947 189.19 640.301 186.426 639.582 183.839C642.198 187.359 641.014 193.87 642.537 197.949C642.992 199.172 644.218 204.004 645.473 204.553C648.254 205.778 647.551 201.695 647.33 200.069C646.741 195.697 646.494 191.185 646.524 186.756C646.573 178.471 645.747 170.382 644.404 162.253" fill="#6A6A6A"/>
</g>
</g>
</g>
</g>
<g id="g2024">
<g id="g2038">
<g id="g2036" opacity="0.399994">
<g id="g2034" opacity="0.399994">
<path id="path2032" opacity="0.399994" d="M619.544 215.496C619.461 222.43 617.875 228.651 617.49 235.527C617.014 243.99 617.375 252.218 618.071 260.626C618.92 270.952 620.496 283.095 626.776 291.74C629.716 295.793 634.269 299.606 638.311 302.591C633.092 293.936 627.033 285.969 625.145 275.707C624.25 270.855 624.991 265.762 624.131 260.865C623.308 256.147 622.421 251.296 622.189 246.355C621.956 241.426 621.968 236.476 621.528 231.774C621.085 227.017 621.405 220.814 619.837 216.405" fill="#6A6A6A"/>
</g>
</g>
</g>
</g>
<g id="g2040">
<g id="g2054">
<g id="g2052" opacity="0.399994">
<g id="g2050" opacity="0.399994">
<path id="path2048" opacity="0.399994" d="M626.086 242.423C627.141 245.916 626.888 250.177 627.392 253.853C628.026 258.468 627.986 263.373 629.091 267.909C630.861 275.151 634.081 282.225 636.471 289.303C638.251 294.584 640.371 299.659 644.146 303.833C647.113 307.11 651.801 310.103 653.863 314.125C654.116 314.625 654.592 315.04 654.859 315.508C634.701 305.893 629.423 279.224 624.591 259.667C623.745 256.238 621.801 252.326 621.756 248.879C622.793 250.748 623.532 253.484 625.27 254.796C625.576 250.841 626.003 246.937 626.08 243.028" fill="#6A6A6A"/>
</g>
</g>
</g>
</g>
<g id="g2056">
<g id="g2070">
<g id="g2068" opacity="0.399994">
<g id="g2066" opacity="0.399994">
<path id="path2064" opacity="0.399994" d="M631.09 187.061C633.324 191.099 632.994 197.213 632.719 201.573C632.346 207.505 633.334 214.185 635.151 219.734C636.844 224.915 637.68 229.959 639.041 235.176C640.343 240.19 642.907 244.838 644.462 249.68C647.113 257.981 650.418 268.004 655.941 274.869C658.406 277.931 660.599 280.918 662.326 284.474C663.801 287.508 667.112 291.512 667.523 294.713C663.337 295.096 658.699 284.355 656.172 281.376C651.654 276.064 648.604 271.793 646.068 265.104C644.213 260.225 642.101 255.808 639.369 251.489C636.477 246.932 636.888 242.323 635.072 237.511C633.652 233.756 632.036 230.549 631.514 226.371C630.943 221.802 630.949 217.059 630.789 212.474C630.521 204.669 631.141 195.597 631.682 188.27" fill="#6A6A6A"/>
</g>
</g>
</g>
</g>
<g id="g2072">
<g id="g2086">
<g id="g2084" opacity="0.399994">
<g id="g2082" opacity="0.399994">
<path id="path2080" opacity="0.399994" d="M652.074 160.761C651.922 156.907 661.748 154.353 664.628 152.782C670.291 149.694 676.028 151.107 682.352 152.028C692.622 153.519 702.689 154.698 712.853 157.124C720.642 158.979 728.708 161.101 736.545 161.986C738.72 162.229 740.543 162.268 742.661 161.773C736.363 157.962 729.409 156.666 722.337 155.101C711.808 152.772 701.597 149.197 691.004 146.901C688.272 146.31 676.848 145.111 675.564 142.126C673.78 137.974 689.41 139.321 691.658 139.108C697.642 138.541 703.904 137.208 710.178 136.617C720.393 135.655 731.035 134.764 741.322 134.76C753.5 134.76 765.665 133.571 777.409 131.682C778.8 131.459 780.215 131.356 781.43 130.805C775.758 130.364 769.492 132.138 763.798 132.893C757.807 133.685 752.258 134.14 746.12 134.452C732.833 135.123 719.445 135.127 706.312 135.758C701.826 135.971 696.941 136.429 692.306 136.617C688.707 136.761 681.544 137.188 678.752 134.991C680.025 133.373 683.037 132.559 684.949 131.572C687.429 130.291 689.228 128.802 691.49 127.245C695.943 124.185 701.441 122.889 706.713 122.688C713.955 122.407 721.191 124.74 728.414 125.159C734.82 125.527 741.288 125.564 747.546 124.547C752.467 123.747 757.53 121.542 762.414 121.39C760.861 118.919 758.145 118.808 757.192 115.602C751.45 118.18 746.086 120.313 739.858 121.433C734.878 122.328 730.057 122.996 724.888 122.996C721.596 122.996 716.263 123.922 713.238 122.615C715.038 120.531 719.769 119.733 722.477 118.974C727.163 117.658 731.98 117.06 736.74 115.947C740.107 115.161 743.54 114.203 746.758 113.401C749.117 112.81 752.607 112.593 754.498 111.307C742.995 111.335 731.983 115.833 720.378 118.122C710.862 119.999 701.838 122.382 692.924 124.732C688.636 125.86 684.197 127.431 679.823 128.415C675.333 129.424 670.554 130.947 666.22 132.699C660.41 135.05 646.467 140.068 647.176 144.675C647.633 147.626 650.315 158.886 652.692 160.761" fill="#6A6A6A"/>
</g>
</g>
</g>
</g>
<g id="g2088">
<g id="g2102">
<g id="g2100" opacity="0.399994">
<g id="g2098" opacity="0.399994">
<path id="path2096" opacity="0.399994" d="M762.442 370.625C760.958 373.879 760.551 378.033 759.514 381.544C758.515 384.931 757.199 388.14 755.917 391.433C753.195 398.446 750.688 405.53 747.764 412.428C745.348 418.127 743.282 425.209 738.513 429.36C733.479 433.749 728.505 437.611 723.79 442.437C714.916 451.503 706.852 462.076 699.948 472.771C694.106 481.815 692.319 493.132 690.225 503.104C688.121 513.134 692.372 522.507 691.728 532.819C691.578 535.277 690.959 538.029 691.374 540.559C691.827 543.301 693.518 545.786 694.383 548.384C695.932 553.016 696.104 557.801 697.518 562.536C698.444 565.62 702.026 574.059 703.427 567.094C704.414 562.208 704.11 557.588 704.229 552.629C704.284 550.223 704.748 547.88 704.539 545.512C704.304 542.811 703.551 540.223 703.419 537.464C703.229 533.471 702.233 524.925 704.464 521.701C706.818 528.467 708.44 536.292 709.92 543.431C710.37 545.597 710.428 548.894 711.613 550.788C713.541 553.896 713.774 551.723 713.8 548.915C713.924 536.48 712.68 525.058 710.005 513.108C707.328 501.152 706.206 487.838 714.292 477.64C716.53 474.811 723.618 466.347 725.576 473.081C726.393 475.902 724.635 478.438 727.112 480.756C728.73 482.269 731.403 482.678 733.29 481.214C737.144 478.213 737.792 467.479 738.714 463.174C739.951 457.427 742.713 452.431 744.396 446.778C745.247 443.927 745.575 441.165 746.814 438.413C748.485 434.709 750.585 431.527 751.851 427.594C752.815 424.581 754.447 421.395 755.293 418.293C756.093 415.348 755.933 412.072 756.403 409.082C757.497 402.104 759.115 395.129 760.662 388.252C761.859 382.926 763.963 376.603 762.438 370.931" fill="#6A6A6A"/>
</g>
</g>
</g>
</g>
<g id="g2104">
<g id="g2118">
<g id="g2116" opacity="0.399994">
<g id="g2114" opacity="0.399994">
<path id="path2112" opacity="0.399994" d="M799.181 453.274C798.286 463.084 792.425 472.497 789.531 481.859C786.588 491.387 782.36 499.915 777.121 508.291C769.46 520.543 765.039 534.254 757.159 546.443C751.312 555.467 745.156 563.859 738.495 572.377C734.996 576.851 731.13 580.796 727.606 585.133C723.631 590.012 718.697 594.168 714.416 598.752C710.591 602.849 706.441 606.381 713.031 609.585C714.198 610.156 715.939 610.737 717.027 611.059C714.333 611.819 705.032 617.842 711.634 619.273C715.257 620.061 719.514 612.501 722.944 610.513C728.937 607.047 736.482 605.691 741.654 600.282C745.512 596.247 748.414 591.047 752.09 586.766C755.707 582.557 759.761 578.706 763.322 574.524C769.624 567.122 772.844 558.636 775.776 549.473C778.615 540.613 780.985 531.813 784.144 522.992C786.386 516.738 790.242 511.199 792.425 504.956C793.444 502.028 794.472 499.324 792.755 497.157C790.627 494.468 789.055 494.802 789.721 490.723C790.467 486.132 792.557 482.133 793.31 477.414C793.899 473.7 794.156 466.638 796.265 463.795" fill="#6A6A6A"/>
</g>
</g>
</g>
</g>
<g id="g2120">
<g id="g2134">
<g id="g2132" opacity="0.399994">
<g id="g2130" opacity="0.399994">
<path id="path2128" opacity="0.399994" d="M705.319 558.822C706.206 560.585 705.767 562.606 705.852 564.559C706.008 567.908 706.37 571.313 706.67 574.63C706.931 577.465 708.377 579.448 708.966 582.052C709.955 586.426 707.731 591.649 706.374 595.647C703.976 602.727 699.691 608.901 698.03 616.269C696.88 621.392 696.119 626.192 697.544 631.348C699.041 636.763 701.088 638.9 705.351 642.754C708.822 645.887 708.707 650.694 707.095 654.755C707.225 653.752 707.146 652.76 706.838 651.828C706.785 655.806 707.478 670.427 708.474 674.311C706.878 671.377 697.978 668.969 695.169 667.055C690.926 664.17 687.36 655.601 687.66 651.178C688.022 645.86 689.367 640.599 689.731 635.311C690.07 630.465 689.654 625.578 690.232 620.862C690.803 616.224 690.768 611.475 691.346 606.698C691.941 601.761 693.348 597.743 694.95 593.115C696.427 588.832 696.481 584.247 698.531 580.069C700.918 575.219 702.071 571.223 703.606 566.185C704.229 564.14 705.73 561.187 704.697 559.109" fill="#6A6A6A"/>
</g>
</g>
</g>
</g>
<g id="g2136">
<g id="g2150">
<g id="g2148" opacity="0.399994">
<g id="g2146" opacity="0.399994">
<path id="path2144" opacity="0.399994" d="M736.635 654.168C739.244 652.372 742.466 651.9 745.404 650.835C749.868 649.213 754.374 649.239 758.934 648.271C761.915 647.635 764.473 645.843 767.264 644.555C774.192 641.355 781.292 641.135 788.592 639.235C795.334 637.473 802.12 635.816 808.712 633.658C815.501 631.444 821.635 633.273 828.534 632.181C830.961 631.795 833.089 630.231 835.675 630.316C838.46 630.409 840.971 632.125 843.721 632.185C846.024 632.232 848.205 630.829 850.837 630.942C853.419 631.061 854.906 632.732 857.024 630.642C859.074 628.613 857.863 626.1 858.357 623.518C858.875 620.792 860.426 619.86 862.213 617.959C864.586 615.442 866.684 612.019 869.71 610.223C871.978 608.878 874.236 609.423 876.704 608.374C881.915 606.16 885.953 601.833 890.783 598.993C897.42 595.091 904.963 591.468 912.043 588.167C919.553 584.667 927.191 581.022 934.407 577.103C940.164 573.967 945.541 569.568 951.307 566.804C961.072 562.119 973.98 564.183 983.235 568.041C985.222 568.865 987.763 569.594 989.71 569.9C992.352 570.307 994.916 569.244 997.389 570.198C999.675 571.085 1001.17 573.669 999.1 576.085C997.703 577.721 992.284 578.3 990.171 578.639C983.264 579.758 976.147 578.942 969.094 578.942C962.149 578.942 954.81 577.63 948.409 581.014C944.849 582.899 941.835 585.164 938.004 586.753C934.929 588.015 931.815 589.185 929.044 590.791C923.107 594.226 915.8 597.235 910.577 601.523C906.905 604.542 903.161 607.63 899.084 610.206C895.872 612.228 892.389 613.491 889.404 615.768C884.412 619.583 879.171 623.836 873.553 626.705C869.398 628.822 862.822 630.002 860.921 634.891C858.831 640.296 867.604 641.311 871.682 640.867C874.89 640.515 877.916 638.64 881.217 638.058C884.05 637.552 886.932 637.402 889.759 637.143C896.332 636.537 902.837 636.827 909.564 636.827C916.205 636.827 922.4 636.309 928.844 635.658C933.996 635.136 939.82 634.245 944.168 637.53C948.599 640.875 955.628 647.927 957.317 653.17C954.677 653.626 952.773 650.861 950.902 649.517C948.334 647.678 945.489 645.95 942.354 645.268C935.523 643.783 928.69 643 921.57 643.018C915.648 643.028 909.83 643.391 903.987 643.636C897.948 643.885 891.881 645.412 885.953 644.494C880.301 643.623 875.011 644.146 869.343 643.937C862.561 643.69 856.087 645.794 849.399 646.805C843.934 647.635 838.012 647.975 832.939 650.057C827.947 652.107 822.823 654.207 817.714 656.007C813.042 657.654 807.673 660.475 802.497 660.039C796.896 659.575 791.677 656.763 786.472 654.699C779.797 652.058 774.236 650.124 767.037 649.841C761.895 649.64 757.707 651.28 752.753 652.372C748.551 653.298 744.141 655.185 740.912 658.176C739.29 659.681 733.982 665.414 731.781 662.251C729.979 659.656 734.902 655.361 736.635 654.168Z" fill="#6A6A6A"/>
</g>
</g>
</g>
</g>
<g id="g2152">
<g id="g2166">
<g id="g2164" opacity="0.399994">
<g id="g2162" opacity="0.399994">
<path id="path2160" opacity="0.399994" d="M999.59 616.396C997.391 617.514 994.537 617.19 992.13 618.176C989.641 619.191 987.739 620.594 985.655 622.447C983.652 624.235 982.324 625.91 980.949 628.225C979.964 629.881 979.069 633.043 977.476 634.124C973.569 636.783 966.856 632.87 962.546 634.655C954.662 637.935 963.8 640.625 965.9 643.559C966.971 645.054 965.665 645.706 967.631 646.805C969.075 647.612 971.412 646.967 972.974 647.575C974.74 648.26 975.163 650.183 977.891 649.282C979.701 648.683 980.823 647.551 980.082 645.566C981.931 644.533 982.247 643.308 983.257 641.785C984.894 639.321 985.009 639.993 983.853 637.445C981.516 632.275 983.638 633.166 988.555 632.492C994.819 631.631 1003.37 623.909 1003.55 617.372C1001.82 617.528 1000.38 616.957 998.653 617.014" fill="#6A6A6A"/>
</g>
</g>
</g>
</g>
<g id="g2168">
<g id="g2182">
<g id="g2180" opacity="0.399994">
<g id="g2178" opacity="0.399994">
<path id="path2176" opacity="0.399994" d="M843.014 662.516C845.489 661.493 846.249 658.463 848.114 656.693C849.782 655.114 852.024 654.008 853.968 652.856C858.768 650.028 863.221 650.486 868.533 651.288C874.033 652.118 878.003 649.962 883.382 651.991C888.232 653.822 892.655 654.095 896.895 657.542C895.038 661.902 887.489 654.283 884.271 655.085C882.636 655.488 881.259 658.078 879.509 659.042C877.322 660.253 875.164 660.537 872.748 660.659C867.77 660.908 862.478 661.232 857.565 662.19C853.245 663.03 847.899 663.135 843.932 663.135" fill="#6A6A6A"/>
</g>
</g>
</g>
</g>
<g id="g2184">
<g id="g2198">
<g id="g2196" opacity="0.399994">
<g id="g2194" opacity="0.399994">
<path id="path2192" opacity="0.399994" d="M965.033 657.564C969.037 658.848 962.672 661.683 961.566 662.585C959.721 664.085 958.296 665.916 956.856 667.777C954.636 670.649 954.503 670.902 950.928 670.948C948.599 670.977 946.856 671.866 944.407 672.741C942.038 673.581 939.113 674.13 941.027 670.558C942.032 668.682 945.59 667.078 946.317 665.238C946.809 664 945.483 662.858 946.473 661.572C947.396 660.373 949.174 660.736 950.446 660.659C954.468 660.42 953.518 659.849 956.439 657.645C959.057 655.661 963.006 656.736 965.643 658.182" fill="#6A6A6A"/>
</g>
</g>
</g>
</g>
<g id="g2200">
<g id="g2214">
<g id="g2212" opacity="0.399994">
<g id="g2210" opacity="0.399994">
<path id="path2208" opacity="0.399994" d="M944.135 396.008C941.026 401.125 939.603 407.749 937.719 413.347C935.236 420.71 935.714 428.942 936.751 436.626C938.677 450.936 935.907 469.968 945.465 482.076C947.112 484.166 949.001 486.783 951.026 488.488C954.903 491.754 960.441 492.244 965.065 494.116C970.482 496.305 971.626 501.817 974.245 506.58C975.154 508.229 978.718 512.344 977.27 514.197C975.877 515.983 972.558 513.956 972.102 517.415C971.276 523.63 984.761 522.589 988.095 526.026C990.077 528.067 990.227 531.05 992.894 532.433C997.534 534.837 997.714 531.461 996.345 528.1C992.71 519.171 988.453 510.663 984.366 501.961C981.873 496.661 980.065 490.788 976.997 485.762C973.574 480.158 969.226 475.178 966.817 469.056C962.323 457.627 957.254 447.3 954.257 435.301C953.26 431.314 951.658 427.511 950.664 423.554C949.479 418.835 949.339 413.742 948.398 408.989C947.758 405.759 946.425 397.601 944.228 395.41C943.801 396.014 943.793 396.536 943.807 397.247" fill="#6A6A6A"/>
</g>
</g>
</g>
</g>
<g id="g2216">
<g id="g2230">
<g id="g2228" opacity="0.399994">
<g id="g2226" opacity="0.399994">
<path id="path2224" opacity="0.399994" d="M1031.54 163.801C1029.7 162.106 1030.39 157.784 1030.87 155.467C1031.62 151.8 1031.38 151.54 1028.17 148.754C1023.55 144.752 1018.57 143.932 1012.61 146.324C1006.07 148.95 1001.81 155.396 994.89 157.877C991.557 159.07 988.106 159.602 984.823 160.996C981.7 162.33 979.157 164.633 976.37 166.531C970.359 170.635 964.241 174.19 957.868 177.657C953.686 179.929 948.087 183.767 943.279 183.657C944.701 181.636 946.829 180.698 948.733 179.103C950.756 177.41 952.086 175.135 954.239 173.517C960.608 168.73 967.226 165.204 974.732 162.104C982.069 159.07 988.677 155.536 995.749 152.032C998.898 150.469 1009.06 141.388 1000.71 140.823C994.657 140.412 987.869 144.639 982.492 146.929C974.863 150.177 966.475 150.631 958.857 153.618C951.528 156.494 944.018 158.142 936.434 160.196C931.766 161.464 924.121 162.798 919.555 160.743C921.436 148.932 943.135 149.853 952.087 147.225C957.805 145.548 963.346 144.09 969.185 142.838C972.237 142.184 976.453 141.129 979.104 139.408C981.597 137.788 983.245 135.69 986.151 134.402C987.891 133.632 990.481 133.407 991.885 132.304C987.628 127.293 979.671 130.538 974.446 131.645C964.361 133.78 952.947 133.401 942.647 132.858C932.736 132.336 923.182 136.165 913.295 136.848C907.049 137.279 905.982 139.936 899.708 140.763C896.403 141.204 889.566 140.819 892.762 138.954C897.47 136.216 891.703 136.204 891.348 135.9C894.325 132.148 899.344 133.636 904.147 133.033C911.814 132.081 913.799 129.483 920.762 126.214C923.625 124.869 923.822 125.037 923.36 122.492C922.773 119.288 925.452 122.595 928.739 120.515C931.369 118.855 932.574 118.751 933.806 115.671C934.699 113.445 935.665 108.962 935.999 106.748C946.914 106.775 952.042 111.455 962.33 114.403C973.448 117.585 983.294 123.172 994.086 126.759C1004.05 130.078 1013.83 134.9 1024.23 137.055C1027.68 137.775 1032.54 138.5 1034.46 142.486C1035.52 144.677 1035.24 143.142 1034.33 145.034C1033.15 147.496 1035.8 150.364 1036.39 152.666C1036.91 154.716 1037.96 156.459 1037.31 158.776C1034.07 159.758 1033.07 163.687 1030.9 164.323C1030.98 163.819 1031.38 164.353 1031.53 164.108" fill="#6A6A6A"/>
</g>
</g>
</g>
</g>
<g id="g2232">
<g id="g2246">
<g id="g2244" opacity="0.399994">
<g id="g2242" opacity="0.399994">
<path id="path2240" opacity="0.399994" d="M986.221 360.114C986.865 358.384 985.798 357.74 985.176 356.252C984.218 353.957 984.662 352.007 984.453 349.553C984.255 347.218 983.479 345.148 982.695 342.953C981.703 340.16 981.618 340.881 979.147 339.694C977.657 338.979 976.482 337.639 975.109 336.776C973.939 336.041 970.573 333.564 969.214 334.923C968.096 336.045 969.552 336.77 969.609 337.649C969.631 338.032 969.566 339.678 969.57 339.682C970.433 343.546 974.494 342.064 976.328 345.674C975.275 345.782 974.384 345.602 973.408 345.504C973.89 347.256 975.449 347.193 976.871 347.914C978.712 348.846 979.854 349.864 981.102 351.967C981.948 353.386 982.118 355.268 983.07 356.523C984.214 358.022 986.219 358.194 986.495 360.114" fill="#6A6A6A"/>
</g>
</g>
</g>
</g>
<g id="g2248">
<g id="g2262">
<g id="g2260" opacity="0.399994">
<g id="g2258" opacity="0.399994">
<path id="path2256" opacity="0.399994" d="M983.89 372.877C981.16 373.501 978.528 375.396 975.709 375.933C972.44 376.551 969.064 375.02 966.051 373.776C963.712 372.81 959.977 370.295 957.318 370.704C952.168 371.506 958.491 374.637 960.237 375.516C964.542 377.689 969.755 380.026 974.777 380.809C977.663 381.259 978.582 378.855 981.373 379.121C984.083 379.384 983.578 382.689 985.446 383.149C986.697 383.454 988.516 380.937 988.698 379.935C988.996 378.26 987.677 377.511 987.424 376.137C987.183 374.813 988.228 373.642 987.22 372.541C986.286 371.518 984.03 372.01 982.857 372.381C982.786 372.691 982.651 372.875 982.529 373.152" fill="#6A6A6A"/>
</g>
</g>
</g>
</g>
<g id="g2264">
<g id="g2278">
<g id="g2276" opacity="0.399994">
<g id="g2274" opacity="0.399994">
<path id="path2272" opacity="0.399994" d="M975.972 398.671C974.577 400.194 973.931 402.506 973.175 404.373C972.033 407.198 970.482 409.477 968.275 411.642C966.428 413.45 964.409 414.681 962.643 416.534C962.017 417.187 960.915 417.942 960.563 418.768C959.899 420.33 960.859 420.708 961.025 421.476C961.039 421.539 961.547 422.057 961.63 422.622C961.701 423.149 961.055 424.157 960.98 424.736C960.842 425.795 960.788 427.002 961.426 427.784C963.066 429.815 964.609 427.814 965.253 430.97C965.822 433.772 964.763 436.369 969.042 435.605C972.066 435.064 974.623 433.104 977.732 432.62C980.547 432.185 983.449 432.389 986.08 433.114C986.132 431.994 984.652 427.75 983.7 426.966C981.896 425.479 977.87 426.375 975.628 426.154C973.337 425.935 971.715 426.887 969.664 426.919C967.353 426.952 966.703 425.038 965.028 423.932C967.24 420.514 977.783 422.178 981.345 421.97C979.245 417.966 972.355 419.449 968.422 419.266C968.73 416.358 971.102 414.351 972.604 411.988C975.478 407.482 975.251 402.425 977.068 397.585" fill="#6A6A6A"/>
</g>
</g>
</g>
</g>
<g id="g2280">
<g id="g2352">
<g id="g2382">
<g id="g2380" opacity="0.520004">
<g id="g2378" opacity="0.520004">
<g id="g2376" opacity="0.520004">
<g id="g2374" opacity="0.520004">
<g id="g2372" opacity="0.520004">
<path id="path2370" opacity="0.520004" d="M211.41 113.193C211.41 113.193 244.021 108.576 282.77 108.576C321.515 108.576 354.853 110.996 354.853 110.996C354.853 110.996 333.542 140.419 283.888 140.419C234.233 140.419 219.581 121.369 211.41 113.193" fill="url(#paint0_linear_44:465)"/>
</g>
</g>
</g>
</g>
</g>
</g>
</g>
</g>
</g>
</g>
</g>
<g id="logo-front" opacity="0.9">
<g id="tag-logo">
<use href="#svg" x="167" y="-328" width="229" />
<text id="TAG-2022" fill="currentColor" xml:space="preserve" style="white-space: pre" font-family="Roboto" font-size="34" letter-spacing="0em"><tspan x="281.042" text-anchor="middle" y="452.621"></tspan></text>
</g>
</g>
<g id="logo-back" opacity="0.9">
<g id="tag-logo_2">
<use href="#svg" x="730" y="-375" width="229" />
<text id="TAG-2022_2" fill="currentColor" xml:space="preserve" style="white-space: pre" font-family="Roboto" font-size="34" letter-spacing="0em"><tspan x="844.042" text-anchor="middle" y="407.621"></tspan></text>
</g>
</g>
</g>
<defs>
<filter id="filter0_f_44:465" x="72.7754" y="102.748" width="977.381" height="598.501" filterUnits="userSpaceOnUse" color-interpolation-filters="sRGB">
<feFlood flood-opacity="0" result="BackgroundImageFix"/>
<feBlend mode="normal" in="SourceGraphic" in2="BackgroundImageFix" result="shape"/>
<feGaussianBlur stdDeviation="2" result="effect1_foregroundBlur_44:465"/>
</filter>
<linearGradient id="paint0_linear_44:465" x1="283.132" y1="140.42" x2="283.132" y2="108.577" gradientUnits="userSpaceOnUse">
<stop stop-color="#231F20"/>
<stop offset="1" stop-color="#231F20"/>
</linearGradient>
</defs>
</svg>
